<svg xmlns="http://www.w3.org/2000/svg" xmlns:xlink="http://www.w3.org/1999/xlink" width="422" zoomAndPan="magnify" viewBox="0 0 316.5 99.749996" height="133" preserveAspectRatio="xMidYMid meet" version="1.0"><defs><g/><clipPath id="80ab0803c6"><path d="M 156 34 L 191 34 L 191 67.464844 L 156 67.464844 Z M 156 34 " clip-rule="nonzero"/></clipPath><clipPath id="160c6df2ea"><path d="M 14 18 L 47 18 L 47 51 L 14 51 Z M 14 18 " clip-rule="nonzero"/></clipPath><clipPath id="90c0f3cbcd"><path d="M 8.375 31.21875 L 34.585938 13.886719 L 49.855469 36.976562 L 23.644531 54.304688 Z M 8.375 31.21875 " clip-rule="nonzero"/></clipPath><clipPath id="5aa52426e9"><path d="M 8.375 31.21875 L 34.585938 13.886719 L 49.855469 36.976562 L 23.644531 54.304688 Z M 8.375 31.21875 " clip-rule="nonzero"/></clipPath><clipPath id="9ad74b13b3"><path d="M 8.375 31.21875 L 34.585938 13.886719 L 49.855469 36.976562 L 23.644531 54.304688 Z M 8.375 31.21875 " clip-rule="nonzero"/></clipPath><clipPath id="ea6fd9d598"><path d="M 33 26 L 42 26 L 42 38 L 33 38 Z M 33 26 " clip-rule="nonzero"/></clipPath><clipPath id="c948f1c138"><path d="M 8.375 31.21875 L 34.585938 13.886719 L 49.855469 36.976562 L 23.644531 54.304688 Z M 8.375 31.21875 " clip-rule="nonzero"/></clipPath><clipPath id="a3a03704c4"><path d="M 8.375 31.21875 L 34.585938 13.886719 L 49.855469 36.976562 L 23.644531 54.304688 Z M 8.375 31.21875 " clip-rule="nonzero"/></clipPath><clipPath id="66b39533f8"><path d="M 8.375 31.21875 L 34.585938 13.886719 L 49.855469 36.976562 L 23.644531 54.304688 Z M 8.375 31.21875 " clip-rule="nonzero"/></clipPath><clipPath id="c6f8cf4955"><path d="M 24 32 L 41 32 L 41 46 L 24 46 Z M 24 32 " clip-rule="nonzero"/></clipPath><clipPath id="818fcd0d62"><path d="M 8.375 31.21875 L 34.585938 13.886719 L 49.855469 36.976562 L 23.644531 54.304688 Z M 8.375 31.21875 " clip-rule="nonzero"/></clipPath><clipPath id="81d954144e"><path d="M 8.375 31.21875 L 34.585938 13.886719 L 49.855469 36.976562 L 23.644531 54.304688 Z M 8.375 31.21875 " clip-rule="nonzero"/></clipPath><clipPath id="bfe81bc463"><path d="M 8.375 31.21875 L 34.585938 13.886719 L 49.855469 36.976562 L 23.644531 54.304688 Z M 8.375 31.21875 " clip-rule="nonzero"/></clipPath><clipPath id="7abdced1be"><path d="M 28 36 L 39 36 L 39 45 L 28 45 Z M 28 36 " clip-rule="nonzero"/></clipPath><clipPath id="b3906c63b1"><path d="M 8.375 31.21875 L 34.585938 13.886719 L 49.855469 36.976562 L 23.644531 54.304688 Z M 8.375 31.21875 " clip-rule="nonzero"/></clipPath><clipPath id="44da33c310"><path d="M 8.375 31.21875 L 34.585938 13.886719 L 49.855469 36.976562 L 23.644531 54.304688 Z M 8.375 31.21875 " clip-rule="nonzero"/></clipPath><clipPath id="58da682799"><path d="M 8.375 31.21875 L 34.585938 13.886719 L 49.855469 36.976562 L 23.644531 54.304688 Z M 8.375 31.21875 " clip-rule="nonzero"/></clipPath><clipPath id="bea7c7861d"><path d="M 15 19 L 33 19 L 33 32 L 15 32 Z M 15 19 " clip-rule="nonzero"/></clipPath><clipPath id="b04a3ed30e"><path d="M 8.375 31.21875 L 34.585938 13.886719 L 49.855469 36.976562 L 23.644531 54.304688 Z M 8.375 31.21875 " clip-rule="nonzero"/></clipPath><clipPath id="34c750e210"><path d="M 8.375 31.21875 L 34.585938 13.886719 L 49.855469 36.976562 L 23.644531 54.304688 Z M 8.375 31.21875 " clip-rule="nonzero"/></clipPath><clipPath id="3a12dabc03"><path d="M 8.375 31.21875 L 34.585938 13.886719 L 49.855469 36.976562 L 23.644531 54.304688 Z M 8.375 31.21875 " clip-rule="nonzero"/></clipPath></defs><g fill="#000000" fill-opacity="1"><g transform="translate(23.443207, 63.448544)"><g><path d="M 3.0625 0 L 3.0625 -26.203125 L 12.109375 -26.203125 L 12.109375 -23.4375 L 12.203125 -23.4375 C 14.554688 -25.789062 17.0625 -26.96875 19.71875 -26.96875 C 21.625 -26.96875 23.410156 -26.578125 25.078125 -25.796875 C 26.742188 -25.015625 28.003906 -23.804688 28.859375 -22.171875 C 31.515625 -25.367188 34.410156 -26.96875 37.546875 -26.96875 C 40.335938 -26.96875 42.738281 -26.179688 44.75 -24.609375 C 46.757812 -23.046875 47.765625 -20.597656 47.765625 -17.265625 L 47.765625 0 L 38.71875 0 L 38.71875 -14.8125 C 38.71875 -16.207031 38.332031 -17.375 37.5625 -18.3125 C 36.800781 -19.25 35.65625 -19.71875 34.125 -19.71875 C 32.789062 -19.71875 31.773438 -19.316406 31.078125 -18.515625 C 30.378906 -17.710938 30 -16.75 29.9375 -15.625 L 29.9375 0 L 20.890625 0 L 20.890625 -14.8125 C 20.890625 -16.207031 20.503906 -17.375 19.734375 -18.3125 C 18.972656 -19.25 17.828125 -19.71875 16.296875 -19.71875 C 14.898438 -19.71875 13.851562 -19.28125 13.15625 -18.40625 C 12.457031 -17.539062 12.109375 -16.515625 12.109375 -15.328125 L 12.109375 0 Z M 3.0625 0 "/></g></g></g><g fill="#000000" fill-opacity="1"><g transform="translate(68.946289, 63.448544)"><g><path d="M 11.59375 -26.203125 L 11.59375 -13.734375 C 11.59375 -11.148438 11.984375 -9.3125 12.765625 -8.21875 C 13.546875 -7.132812 14.875 -6.59375 16.75 -6.59375 C 18.625 -6.59375 19.953125 -7.132812 20.734375 -8.21875 C 21.515625 -9.3125 21.90625 -11.148438 21.90625 -13.734375 L 21.90625 -26.203125 L 30.953125 -26.203125 L 30.953125 -11.546875 C 30.953125 -7.179688 29.816406 -4.035156 27.546875 -2.109375 C 25.285156 -0.191406 21.6875 0.765625 16.75 0.765625 C 11.8125 0.765625 8.207031 -0.191406 5.9375 -2.109375 C 3.675781 -4.035156 2.546875 -7.179688 2.546875 -11.546875 L 2.546875 -26.203125 Z M 11.59375 -26.203125 "/></g></g></g><g fill="#000000" fill-opacity="1"><g transform="translate(97.646935, 63.448544)"><g><path d="M 3.0625 0 L 3.0625 -26.203125 L 12.109375 -26.203125 L 12.109375 -23.4375 L 12.203125 -23.4375 C 14.554688 -25.789062 17.0625 -26.96875 19.71875 -26.96875 C 21.007812 -26.96875 22.289062 -26.796875 23.5625 -26.453125 C 24.84375 -26.117188 26.070312 -25.59375 27.25 -24.875 C 28.425781 -24.15625 29.378906 -23.140625 30.109375 -21.828125 C 30.835938 -20.523438 31.203125 -19.003906 31.203125 -17.265625 L 31.203125 0 L 22.171875 0 L 22.171875 -14.8125 C 22.171875 -16.175781 21.734375 -17.367188 20.859375 -18.390625 C 19.992188 -19.410156 18.863281 -19.921875 17.46875 -19.921875 C 16.101562 -19.921875 14.867188 -19.390625 13.765625 -18.328125 C 12.660156 -17.273438 12.109375 -16.101562 12.109375 -14.8125 L 12.109375 0 Z M 3.0625 0 "/></g></g></g><g fill="#000000" fill-opacity="1"><g transform="translate(126.602941, 63.448544)"><g><path d="M 4.84375 -3.234375 C 2.394531 -5.910156 1.171875 -9.191406 1.171875 -13.078125 C 1.171875 -16.960938 2.394531 -20.25 4.84375 -22.9375 C 7.300781 -25.625 10.421875 -26.96875 14.203125 -26.96875 C 17.671875 -26.96875 20.53125 -25.878906 22.78125 -23.703125 L 22.78125 -43.921875 L 31.828125 -43.921875 L 31.828125 0 L 22.890625 0 L 22.890625 -2.96875 L 22.78125 -2.96875 C 20.53125 -0.476562 17.671875 0.765625 14.203125 0.765625 C 10.421875 0.765625 7.300781 -0.566406 4.84375 -3.234375 Z M 12.53125 -17.515625 C 11.363281 -16.359375 10.78125 -14.878906 10.78125 -13.078125 C 10.78125 -11.273438 11.34375 -9.800781 12.46875 -8.65625 C 13.59375 -7.519531 15.070312 -6.953125 16.90625 -6.953125 C 18.675781 -6.953125 20.128906 -7.53125 21.265625 -8.6875 C 22.410156 -9.84375 22.984375 -11.304688 22.984375 -13.078125 C 22.984375 -14.878906 22.394531 -16.359375 21.21875 -17.515625 C 20.039062 -18.671875 18.601562 -19.25 16.90625 -19.25 C 15.164062 -19.25 13.707031 -18.671875 12.53125 -17.515625 Z M 12.53125 -17.515625 "/></g></g></g><g fill="#000000" fill-opacity="1"><g transform="translate(156.691272, 63.448544)"><g/></g></g><g fill="#000000" fill-opacity="1"><g transform="translate(165.83163, 63.448544)"><g/></g></g><g fill="#000000" fill-opacity="1"><g transform="translate(174.971988, 63.448544)"><g/></g></g><g fill="#000000" fill-opacity="1"><g transform="translate(184.114727, 63.448544)"><g><path d="M 4.59375 -26.203125 L 4.59375 -35.953125 L 13.640625 -35.953125 L 13.640625 -26.203125 L 19.15625 -26.203125 L 19.15625 -19.3125 L 13.640625 -19.3125 L 13.640625 -10.984375 C 13.640625 -8.566406 14.320312 -7.359375 15.6875 -7.359375 C 16.019531 -7.359375 16.375 -7.425781 16.75 -7.5625 C 17.125 -7.695312 17.414062 -7.832031 17.625 -7.96875 L 17.921875 -8.171875 L 20.171875 -0.875 C 18.234375 0.21875 16.019531 0.765625 13.53125 0.765625 C 11.832031 0.765625 10.367188 0.46875 9.140625 -0.125 C 7.910156 -0.71875 6.984375 -1.515625 6.359375 -2.515625 C 5.734375 -3.523438 5.28125 -4.582031 5 -5.6875 C 4.726562 -6.800781 4.59375 -7.988281 4.59375 -9.25 L 4.59375 -19.3125 L 0.8125 -19.3125 L 0.8125 -26.203125 Z M 4.59375 -26.203125 "/></g></g></g><g fill="#000000" fill-opacity="1"><g transform="translate(199.485768, 63.448544)"><g><path d="M 29.578125 -11.84375 L 10.578125 -11.84375 C 10.578125 -10.007812 11.171875 -8.648438 12.359375 -7.765625 C 13.554688 -6.878906 14.851562 -6.4375 16.25 -6.4375 C 17.707031 -6.4375 18.863281 -6.628906 19.71875 -7.015625 C 20.570312 -7.410156 21.539062 -8.1875 22.625 -9.34375 L 29.171875 -6.078125 C 26.441406 -1.515625 21.910156 0.765625 15.578125 0.765625 C 11.628906 0.765625 8.238281 -0.585938 5.40625 -3.296875 C 2.582031 -6.003906 1.171875 -9.265625 1.171875 -13.078125 C 1.171875 -16.890625 2.582031 -20.15625 5.40625 -22.875 C 8.238281 -25.601562 11.628906 -26.96875 15.578125 -26.96875 C 19.734375 -26.96875 23.113281 -25.765625 25.71875 -23.359375 C 28.320312 -20.960938 29.625 -17.535156 29.625 -13.078125 C 29.625 -12.460938 29.609375 -12.050781 29.578125 -11.84375 Z M 10.828125 -16.859375 L 20.78125 -16.859375 C 20.582031 -18.222656 20.046875 -19.269531 19.171875 -20 C 18.304688 -20.726562 17.191406 -21.09375 15.828125 -21.09375 C 14.335938 -21.09375 13.148438 -20.703125 12.265625 -19.921875 C 11.378906 -19.140625 10.898438 -18.117188 10.828125 -16.859375 Z M 10.828125 -16.859375 "/></g></g></g><g fill="#000000" fill-opacity="1"><g transform="translate(225.479634, 63.448544)"><g><path d="M 17.015625 -19.5625 C 15.304688 -19.5625 13.835938 -18.929688 12.609375 -17.671875 C 11.390625 -16.410156 10.78125 -14.894531 10.78125 -13.125 C 10.78125 -11.320312 11.390625 -9.789062 12.609375 -8.53125 C 13.835938 -7.269531 15.304688 -6.640625 17.015625 -6.640625 C 17.828125 -6.640625 18.597656 -6.738281 19.328125 -6.9375 C 20.066406 -7.144531 20.601562 -7.351562 20.9375 -7.5625 L 21.40625 -7.859375 L 24.46875 -1.578125 C 24.226562 -1.410156 23.894531 -1.195312 23.46875 -0.9375 C 23.039062 -0.6875 22.066406 -0.34375 20.546875 0.09375 C 19.035156 0.539062 17.414062 0.765625 15.6875 0.765625 C 11.832031 0.765625 8.445312 -0.585938 5.53125 -3.296875 C 2.625 -6.003906 1.171875 -9.25 1.171875 -13.03125 C 1.171875 -16.84375 2.625 -20.117188 5.53125 -22.859375 C 8.445312 -25.597656 11.832031 -26.96875 15.6875 -26.96875 C 17.414062 -26.96875 19.007812 -26.765625 20.46875 -26.359375 C 21.9375 -25.953125 22.976562 -25.539062 23.59375 -25.125 L 24.46875 -24.515625 L 21.40625 -18.34375 C 20.28125 -19.15625 18.816406 -19.5625 17.015625 -19.5625 Z M 17.015625 -19.5625 "/></g></g></g><g fill="#000000" fill-opacity="1"><g transform="translate(245.753522, 63.448544)"><g><path d="M 3.0625 0 L 3.0625 -43.921875 L 12.109375 -43.921875 L 12.109375 -23.4375 L 12.203125 -23.4375 C 14.554688 -25.789062 17.0625 -26.96875 19.71875 -26.96875 C 21.007812 -26.96875 22.289062 -26.796875 23.5625 -26.453125 C 24.84375 -26.117188 26.070312 -25.59375 27.25 -24.875 C 28.425781 -24.15625 29.378906 -23.140625 30.109375 -21.828125 C 30.835938 -20.523438 31.203125 -19.003906 31.203125 -17.265625 L 31.203125 0 L 22.171875 0 L 22.171875 -14.8125 C 22.171875 -16.175781 21.734375 -17.367188 20.859375 -18.390625 C 19.992188 -19.410156 18.863281 -19.921875 17.46875 -19.921875 C 16.101562 -19.921875 14.867188 -19.390625 13.765625 -18.328125 C 12.660156 -17.273438 12.109375 -16.101562 12.109375 -14.8125 L 12.109375 0 Z M 3.0625 0 "/></g></g></g><g fill="#000000" fill-opacity="1"><g transform="translate(274.709522, 63.448544)"><g><path d="M 8.890625 -10.9375 C 10.523438 -10.9375 11.910156 -10.363281 13.046875 -9.21875 C 14.191406 -8.082031 14.765625 -6.695312 14.765625 -5.0625 C 14.765625 -3.457031 14.191406 -2.082031 13.046875 -0.9375 C 11.910156 0.195312 10.523438 0.765625 8.890625 0.765625 C 7.285156 0.765625 5.910156 0.195312 4.765625 -0.9375 C 3.628906 -2.082031 3.0625 -3.457031 3.0625 -5.0625 C 3.0625 -6.695312 3.628906 -8.082031 4.765625 -9.21875 C 5.910156 -10.363281 7.285156 -10.9375 8.890625 -10.9375 Z M 8.890625 -10.9375 "/></g></g></g><g clip-path="url(#80ab0803c6)"><path fill="#29a532" d="M 189.421875 46.09375 C 187.085938 43.070312 183.308594 43.773438 179.878906 45.449219 C 182.386719 42.3125 184.164062 38.683594 181.890625 36.207031 C 177.625 31.550781 173.339844 38.4375 173.339844 38.4375 C 173.339844 38.4375 168.59375 31.675781 164.785156 36.207031 C 162.457031 38.972656 163.703125 42.234375 165.886719 45.058594 C 162.671875 43.636719 159.269531 43.21875 157.089844 46.015625 C 153.453125 50.679688 161.164062 53.777344 161.164062 53.777344 C 161.164062 53.777344 155.304688 59.417969 160.835938 62.511719 C 165.042969 64.867188 169.75 58.742188 172.363281 54.519531 C 172.332031 55.902344 172.1875 57.367188 171.839844 58.632812 C 170.5625 63.25 167.675781 65.203125 167.191406 65.730469 C 166.710938 66.257812 169.542969 67.46875 169.949219 66.988281 C 170.355469 66.503906 173.5 62.808594 173.984375 57.65625 C 174.09375 56.503906 174.125 55.457031 174.109375 54.523438 C 176.703125 58.757812 181.394531 64.917969 185.613281 62.574219 C 191.15625 59.5 185.316406 53.835938 185.316406 53.835938 C 185.316406 53.835938 193.042969 50.769531 189.421875 46.09375 Z M 189.421875 46.09375 " fill-opacity="1" fill-rule="nonzero"/></g><g clip-path="url(#160c6df2ea)"><g clip-path="url(#90c0f3cbcd)"><g clip-path="url(#5aa52426e9)"><g clip-path="url(#9ad74b13b3)"><path fill="#046135" d="M 46.453125 32.089844 C 46.175781 31.882812 45.804688 31.820312 45.46875 31.878906 C 45.042969 31.953125 44.6875 32.210938 44.375 32.488281 C 44.03125 32.789062 43.699219 33.101562 43.363281 33.402344 C 42.671875 34.015625 41.988281 34.621094 41.316406 35.246094 C 41.054688 35.488281 40.800781 35.734375 40.546875 35.984375 C 40.542969 35.976562 40.539062 35.972656 40.539062 35.960938 C 39.9375 34.699219 39.367188 33.421875 38.816406 32.140625 C 38.570312 31.554688 38.320312 30.964844 38.085938 30.371094 C 37.28125 28.378906 36.53125 26.359375 35.851562 24.316406 C 35.679688 23.804688 35.515625 23.300781 35.359375 22.789062 C 35.199219 22.289062 35.046875 21.777344 34.855469 21.289062 C 34.515625 20.394531 34.015625 19.519531 33.21875 18.960938 C 32.859375 18.71875 32.457031 18.535156 32.023438 18.46875 C 31.558594 18.398438 31.085938 18.457031 30.625 18.558594 C 29.664062 18.769531 28.710938 19.078125 27.789062 19.417969 C 25.902344 20.105469 24.082031 20.996094 22.378906 22.058594 C 20.667969 23.128906 19.074219 24.378906 17.628906 25.78125 C 16.902344 26.480469 16.222656 27.222656 15.578125 27.996094 C 15.042969 28.640625 14.519531 29.324219 14.277344 30.140625 C 14.164062 30.53125 14.128906 30.953125 14.214844 31.363281 C 14.300781 31.828125 14.519531 32.253906 14.808594 32.632812 C 15.109375 33.023438 15.464844 33.363281 15.832031 33.695312 C 16.21875 34.042969 16.617188 34.386719 17.007812 34.738281 C 18.585938 36.171875 20.089844 37.699219 21.503906 39.296875 C 22.378906 40.289062 23.222656 41.304688 24.03125 42.351562 C 24.527344 42.992188 25.011719 43.640625 25.480469 44.304688 C 25.722656 44.648438 25.960938 44.996094 26.199219 45.34375 L 26.203125 45.347656 C 24.644531 45.757812 23.164062 46.460938 21.769531 47.257812 C 21.152344 47.609375 20.289062 48 20.4375 48.863281 C 20.578125 49.667969 21.363281 50.039062 22.089844 50.164062 C 22.910156 50.300781 23.734375 50.257812 24.550781 50.148438 C 25.359375 50.039062 26.160156 49.878906 26.960938 49.699219 C 28.566406 49.324219 30.128906 48.808594 31.636719 48.171875 C 34.65625 46.902344 37.453125 45.136719 39.914062 42.984375 C 41.136719 41.90625 42.277344 40.726562 43.3125 39.460938 C 43.832031 38.824219 44.324219 38.167969 44.789062 37.484375 C 45.242188 36.8125 45.6875 36.125 46.058594 35.402344 C 46.242188 35.042969 46.40625 34.675781 46.542969 34.292969 C 46.671875 33.921875 46.804688 33.53125 46.84375 33.132812 C 46.875 32.742188 46.785156 32.335938 46.453125 32.089844 Z M 46.453125 32.089844 " fill-opacity="1" fill-rule="nonzero"/></g></g></g></g><g clip-path="url(#ea6fd9d598)"><g clip-path="url(#c948f1c138)"><g clip-path="url(#a3a03704c4)"><g clip-path="url(#66b39533f8)"><path fill="#48ba27" d="M 40.640625 28.1875 C 40.289062 28.011719 39.859375 28.050781 39.515625 28.222656 C 39.105469 28.421875 38.808594 28.785156 38.5625 29.160156 C 38.433594 29.355469 38.320312 29.558594 38.203125 29.757812 C 38.179688 29.796875 38.152344 29.839844 38.132812 29.878906 C 38.203125 29.722656 38.265625 29.558594 38.328125 29.402344 C 38.402344 29.203125 38.476562 28.988281 38.539062 28.78125 C 38.601562 28.582031 38.667969 28.375 38.6875 28.164062 C 38.703125 27.941406 38.648438 27.730469 38.558594 27.53125 C 38.46875 27.339844 38.339844 27.167969 38.171875 27.023438 C 38.027344 26.898438 37.851562 26.808594 37.671875 26.773438 C 37.476562 26.726562 37.28125 26.746094 37.09375 26.816406 C 36.691406 26.980469 36.433594 27.347656 36.269531 27.730469 C 36.253906 27.765625 36.238281 27.804688 36.222656 27.839844 C 35.898438 27.644531 35.5 27.5625 35.140625 27.667969 C 34.769531 27.769531 34.453125 28.066406 34.367188 28.445312 C 34.277344 28.84375 34.425781 29.257812 34.691406 29.5625 C 34.988281 29.90625 35.402344 30.117188 35.816406 30.273438 C 36.035156 30.359375 36.261719 30.429688 36.484375 30.503906 C 36.65625 30.5625 36.828125 30.621094 37 30.679688 C 36.640625 30.621094 36.28125 30.558594 35.917969 30.507812 C 35.46875 30.441406 35.007812 30.417969 34.578125 30.558594 C 34.199219 30.683594 33.863281 30.953125 33.71875 31.332031 C 33.585938 31.703125 33.691406 32.121094 33.945312 32.417969 C 34.199219 32.707031 34.582031 32.847656 34.960938 32.847656 C 34.992188 32.851562 35.03125 32.851562 35.058594 32.847656 C 35.023438 33.253906 35.046875 33.679688 35.277344 34.039062 C 35.386719 34.203125 35.535156 34.34375 35.710938 34.421875 C 35.878906 34.5 36.066406 34.527344 36.253906 34.511719 C 36.46875 34.496094 36.679688 34.414062 36.867188 34.296875 C 37.050781 34.183594 37.21875 34.03125 37.320312 33.847656 C 37.417969 33.671875 37.464844 33.476562 37.5 33.28125 C 37.542969 33.0625 37.578125 32.84375 37.605469 32.621094 C 37.65625 32.183594 37.683594 31.734375 37.683594 31.292969 C 37.683594 31.253906 37.6875 31.210938 37.683594 31.171875 C 37.84375 31.398438 37.980469 31.632812 38.101562 31.875 C 38.300781 32.253906 38.464844 32.65625 38.589844 33.070312 C 38.71875 33.480469 38.816406 33.898438 38.890625 34.320312 C 38.964844 34.738281 39.011719 35.164062 39.042969 35.589844 C 39.078125 36.015625 39.089844 36.441406 39.089844 36.867188 C 39.089844 36.921875 39.09375 36.972656 39.085938 37.023438 C 39.085938 37.058594 39.097656 37.097656 39.117188 37.132812 C 39.140625 37.15625 39.171875 37.164062 39.210938 37.171875 C 39.289062 37.191406 39.371094 37.160156 39.449219 37.125 C 39.585938 37.058594 39.75 36.964844 39.753906 36.789062 C 39.753906 36.789062 39.753906 36.789062 39.75 36.785156 C 39.710938 36.351562 39.664062 35.914062 39.597656 35.484375 C 39.53125 35.054688 39.449219 34.621094 39.339844 34.195312 C 39.234375 33.777344 39.105469 33.367188 38.941406 32.964844 C 38.78125 32.566406 38.59375 32.179688 38.367188 31.816406 C 38.230469 31.585938 38.078125 31.363281 37.910156 31.148438 C 38.21875 31.410156 38.539062 31.648438 38.878906 31.871094 C 39.0625 31.992188 39.257812 32.109375 39.449219 32.21875 C 39.625 32.324219 39.8125 32.429688 40.007812 32.488281 C 40.210938 32.550781 40.421875 32.546875 40.632812 32.5 C 40.847656 32.449219 41.054688 32.363281 41.230469 32.222656 C 41.53125 31.984375 41.710938 31.605469 41.640625 31.210938 C 41.5625 30.789062 41.261719 30.460938 40.921875 30.210938 C 40.890625 30.1875 40.851562 30.164062 40.820312 30.140625 C 41.066406 29.875 41.226562 29.515625 41.210938 29.148438 C 41.199219 28.753906 40.992188 28.371094 40.640625 28.1875 Z M 40.640625 28.1875 " fill-opacity="1" fill-rule="nonzero"/></g></g></g></g><g clip-path="url(#c6f8cf4955)"><g clip-path="url(#818fcd0d62)"><g clip-path="url(#81d954144e)"><g clip-path="url(#bfe81bc463)"><path fill="#020202" d="M 34.40625 37.882812 C 33.289062 38.734375 32.089844 39.464844 30.871094 40.152344 C 29.691406 40.8125 28.480469 41.410156 27.183594 41.816406 C 26.164062 42.136719 25.09375 42.339844 24.027344 42.355469 C 24.519531 42.996094 25.003906 43.644531 25.476562 44.308594 C 25.71875 44.652344 25.957031 45 26.191406 45.347656 C 28.363281 45.226562 30.453125 44.386719 32.371094 43.355469 C 33.625 42.675781 34.855469 41.933594 36.011719 41.097656 C 37.121094 40.296875 38.164062 39.394531 39.03125 38.332031 C 39.628906 37.605469 40.140625 36.808594 40.535156 35.957031 C 39.933594 34.691406 39.363281 33.417969 38.8125 32.136719 C 38.085938 34.496094 36.347656 36.414062 34.40625 37.882812 Z M 34.40625 37.882812 " fill-opacity="1" fill-rule="nonzero"/></g></g></g></g><g clip-path="url(#7abdced1be)"><g clip-path="url(#b3906c63b1)"><g clip-path="url(#44da33c310)"><g clip-path="url(#58da682799)"><path fill="#ffba10" d="M 37.480469 41.609375 L 32.917969 44.625 C 32.28125 45.046875 31.410156 44.867188 30.988281 44.226562 L 29.136719 41.425781 C 28.710938 40.785156 28.886719 39.914062 29.523438 39.492188 L 34.085938 36.476562 C 34.722656 36.054688 35.589844 36.234375 36.015625 36.875 L 37.867188 39.675781 C 38.289062 40.316406 38.121094 41.183594 37.480469 41.609375 Z M 29.910156 40.078125 C 29.589844 40.292969 29.507812 40.722656 29.71875 41.039062 L 31.570312 43.839844 C 31.78125 44.164062 32.214844 44.25 32.527344 44.039062 L 37.09375 41.023438 C 37.414062 40.808594 37.496094 40.378906 37.285156 40.058594 L 35.433594 37.261719 C 35.21875 36.9375 34.789062 36.851562 34.472656 37.0625 Z M 29.910156 40.078125 " fill-opacity="1" fill-rule="nonzero"/></g></g></g></g><g clip-path="url(#bea7c7861d)"><g clip-path="url(#b04a3ed30e)"><g clip-path="url(#34c750e210)"><g clip-path="url(#3a12dabc03)"><path fill="#058441" d="M 15 31.007812 C 15 31.007812 27.527344 27.960938 32.542969 19.40625 C 32.542969 19.40625 28.457031 28.648438 15 31.007812 Z M 15 31.007812 " fill-opacity="1" fill-rule="nonzero"/></g></g></g></g><g fill="#000000" fill-opacity="1"><g transform="translate(48.445991, 32.737066)"><g><path d="M 2.1875 -4.4375 L 2.1875 -1.375 C 2.1875 -1.03125 2.34375 -0.859375 2.65625 -0.859375 C 2.695312 -0.859375 2.757812 -0.867188 2.84375 -0.890625 C 2.925781 -0.910156 2.992188 -0.921875 3.046875 -0.921875 C 3.128906 -0.921875 3.203125 -0.882812 3.265625 -0.8125 C 3.328125 -0.738281 3.359375 -0.644531 3.359375 -0.53125 C 3.359375 -0.382812 3.273438 -0.257812 3.109375 -0.15625 C 2.953125 -0.0507812 2.769531 0 2.5625 0 C 2.332031 0 2.125 -0.0195312 1.9375 -0.0625 C 1.75 -0.113281 1.582031 -0.238281 1.4375 -0.4375 C 1.289062 -0.632812 1.21875 -0.929688 1.21875 -1.328125 L 1.21875 -4.4375 L 0.609375 -4.4375 C 0.484375 -4.4375 0.378906 -4.476562 0.296875 -4.5625 C 0.210938 -4.644531 0.171875 -4.753906 0.171875 -4.890625 C 0.171875 -5.015625 0.210938 -5.117188 0.296875 -5.203125 C 0.378906 -5.285156 0.484375 -5.328125 0.609375 -5.328125 L 1.21875 -5.328125 L 1.21875 -6.1875 C 1.21875 -6.320312 1.257812 -6.4375 1.34375 -6.53125 C 1.4375 -6.632812 1.554688 -6.6875 1.703125 -6.6875 C 1.835938 -6.6875 1.953125 -6.632812 2.046875 -6.53125 C 2.140625 -6.4375 2.1875 -6.320312 2.1875 -6.1875 L 2.1875 -5.328125 L 3.046875 -5.328125 C 3.171875 -5.328125 3.273438 -5.28125 3.359375 -5.1875 C 3.453125 -5.101562 3.5 -5 3.5 -4.875 C 3.5 -4.738281 3.453125 -4.628906 3.359375 -4.546875 C 3.273438 -4.472656 3.171875 -4.4375 3.046875 -4.4375 Z M 2.1875 -4.4375 "/></g></g></g><g fill="#000000" fill-opacity="1"><g transform="translate(59.053924, 32.737066)"><g><path d="M 5.453125 -2.90625 C 5.453125 -2.78125 5.398438 -2.671875 5.296875 -2.578125 C 5.203125 -2.492188 5.09375 -2.453125 4.96875 -2.453125 L 1.34375 -2.453125 C 1.394531 -1.953125 1.585938 -1.550781 1.921875 -1.25 C 2.253906 -0.945312 2.660156 -0.796875 3.140625 -0.796875 C 3.460938 -0.796875 3.726562 -0.84375 3.9375 -0.9375 C 4.144531 -1.039062 4.328125 -1.164062 4.484375 -1.3125 C 4.585938 -1.375 4.6875 -1.40625 4.78125 -1.40625 C 4.894531 -1.40625 4.988281 -1.363281 5.0625 -1.28125 C 5.144531 -1.195312 5.1875 -1.101562 5.1875 -1 C 5.1875 -0.851562 5.117188 -0.722656 4.984375 -0.609375 C 4.785156 -0.410156 4.519531 -0.238281 4.1875 -0.09375 C 3.863281 0.0390625 3.53125 0.109375 3.1875 0.109375 C 2.632812 0.109375 2.144531 -0.00390625 1.71875 -0.234375 C 1.300781 -0.472656 0.976562 -0.800781 0.75 -1.21875 C 0.519531 -1.632812 0.40625 -2.109375 0.40625 -2.640625 C 0.40625 -3.210938 0.519531 -3.71875 0.75 -4.15625 C 0.988281 -4.59375 1.300781 -4.925781 1.6875 -5.15625 C 2.070312 -5.394531 2.488281 -5.515625 2.9375 -5.515625 C 3.375 -5.515625 3.785156 -5.398438 4.171875 -5.171875 C 4.554688 -4.941406 4.863281 -4.628906 5.09375 -4.234375 C 5.332031 -3.835938 5.453125 -3.394531 5.453125 -2.90625 Z M 2.9375 -4.609375 C 2.550781 -4.609375 2.21875 -4.5 1.9375 -4.28125 C 1.65625 -4.0625 1.472656 -3.726562 1.390625 -3.28125 L 4.421875 -3.28125 L 4.421875 -3.359375 C 4.390625 -3.722656 4.226562 -4.019531 3.9375 -4.25 C 3.644531 -4.488281 3.3125 -4.609375 2.9375 -4.609375 Z M 2.9375 -4.609375 "/></g></g></g><g fill="#000000" fill-opacity="1"><g transform="translate(71.614098, 32.737066)"><g><path d="M 3.078125 -5.515625 C 3.617188 -5.515625 4.066406 -5.425781 4.421875 -5.25 C 4.785156 -5.082031 4.96875 -4.863281 4.96875 -4.59375 C 4.96875 -4.476562 4.925781 -4.375 4.84375 -4.28125 C 4.769531 -4.1875 4.675781 -4.140625 4.5625 -4.140625 C 4.476562 -4.140625 4.410156 -4.148438 4.359375 -4.171875 C 4.304688 -4.203125 4.234375 -4.25 4.140625 -4.3125 C 4.097656 -4.351562 4.035156 -4.40625 3.953125 -4.46875 C 3.867188 -4.507812 3.75 -4.539062 3.59375 -4.5625 C 3.445312 -4.59375 3.3125 -4.609375 3.1875 -4.609375 C 2.832031 -4.609375 2.515625 -4.523438 2.234375 -4.359375 C 1.960938 -4.191406 1.75 -3.960938 1.59375 -3.671875 C 1.445312 -3.378906 1.375 -3.054688 1.375 -2.703125 C 1.375 -2.335938 1.445312 -2.007812 1.59375 -1.71875 C 1.738281 -1.4375 1.945312 -1.210938 2.21875 -1.046875 C 2.488281 -0.878906 2.796875 -0.796875 3.140625 -0.796875 C 3.492188 -0.796875 3.78125 -0.851562 4 -0.96875 C 4.050781 -0.988281 4.113281 -1.03125 4.1875 -1.09375 C 4.257812 -1.15625 4.320312 -1.195312 4.375 -1.21875 C 4.425781 -1.25 4.488281 -1.265625 4.5625 -1.265625 C 4.695312 -1.265625 4.800781 -1.21875 4.875 -1.125 C 4.957031 -1.039062 5 -0.929688 5 -0.796875 C 5 -0.660156 4.910156 -0.519531 4.734375 -0.375 C 4.554688 -0.238281 4.3125 -0.125 4 -0.03125 C 3.695312 0.0625 3.367188 0.109375 3.015625 0.109375 C 2.492188 0.109375 2.035156 -0.0078125 1.640625 -0.25 C 1.242188 -0.5 0.9375 -0.835938 0.71875 -1.265625 C 0.507812 -1.691406 0.40625 -2.171875 0.40625 -2.703125 C 0.40625 -3.234375 0.515625 -3.710938 0.734375 -4.140625 C 0.960938 -4.566406 1.28125 -4.898438 1.6875 -5.140625 C 2.09375 -5.390625 2.554688 -5.515625 3.078125 -5.515625 Z M 3.078125 -5.515625 "/></g></g></g><g fill="#000000" fill-opacity="1"><g transform="translate(83.598875, 32.737066)"><g><path d="M 3.40625 -5.484375 C 4.613281 -5.484375 5.21875 -4.734375 5.21875 -3.234375 L 5.21875 -0.5 C 5.21875 -0.351562 5.171875 -0.234375 5.078125 -0.140625 C 4.992188 -0.046875 4.878906 0 4.734375 0 C 4.597656 0 4.484375 -0.046875 4.390625 -0.140625 C 4.296875 -0.234375 4.25 -0.351562 4.25 -0.5 L 4.25 -3.234375 C 4.25 -4.128906 3.867188 -4.578125 3.109375 -4.578125 C 2.710938 -4.578125 2.378906 -4.445312 2.109375 -4.1875 C 1.835938 -3.925781 1.703125 -3.609375 1.703125 -3.234375 L 1.703125 -0.5 C 1.703125 -0.351562 1.65625 -0.234375 1.5625 -0.140625 C 1.46875 -0.046875 1.351562 0 1.21875 0 C 1.070312 0 0.953125 -0.046875 0.859375 -0.140625 C 0.773438 -0.234375 0.734375 -0.351562 0.734375 -0.5 L 0.734375 -7.109375 C 0.734375 -7.242188 0.773438 -7.359375 0.859375 -7.453125 C 0.953125 -7.554688 1.070312 -7.609375 1.21875 -7.609375 C 1.351562 -7.609375 1.46875 -7.554688 1.5625 -7.453125 C 1.65625 -7.359375 1.703125 -7.242188 1.703125 -7.109375 L 1.703125 -4.515625 C 1.878906 -4.785156 2.117188 -5.015625 2.421875 -5.203125 C 2.734375 -5.390625 3.0625 -5.484375 3.40625 -5.484375 Z M 3.40625 -5.484375 "/></g></g></g><g fill="#000000" fill-opacity="1"><g transform="translate(96.251525, 32.737066)"><g><path d="M 3.46875 -5.515625 C 4.707031 -5.515625 5.328125 -4.773438 5.328125 -3.296875 L 5.328125 -0.5 C 5.328125 -0.351562 5.28125 -0.234375 5.1875 -0.140625 C 5.09375 -0.046875 4.972656 0 4.828125 0 C 4.691406 0 4.578125 -0.046875 4.484375 -0.140625 C 4.390625 -0.234375 4.34375 -0.351562 4.34375 -0.5 L 4.34375 -3.28125 C 4.34375 -3.6875 4.25 -4.007812 4.0625 -4.25 C 3.882812 -4.488281 3.585938 -4.609375 3.171875 -4.609375 C 2.890625 -4.609375 2.640625 -4.546875 2.421875 -4.421875 C 2.203125 -4.304688 2.023438 -4.144531 1.890625 -3.9375 C 1.765625 -3.738281 1.703125 -3.519531 1.703125 -3.28125 L 1.703125 -0.5 C 1.703125 -0.351562 1.65625 -0.234375 1.5625 -0.140625 C 1.46875 -0.046875 1.351562 0 1.21875 0 C 1.070312 0 0.953125 -0.046875 0.859375 -0.140625 C 0.773438 -0.234375 0.734375 -0.351562 0.734375 -0.5 L 0.734375 -4.890625 C 0.734375 -5.023438 0.773438 -5.140625 0.859375 -5.234375 C 0.953125 -5.335938 1.070312 -5.390625 1.21875 -5.390625 C 1.351562 -5.390625 1.46875 -5.335938 1.5625 -5.234375 C 1.65625 -5.140625 1.703125 -5.023438 1.703125 -4.890625 L 1.703125 -4.53125 C 1.878906 -4.8125 2.128906 -5.046875 2.453125 -5.234375 C 2.773438 -5.421875 3.113281 -5.515625 3.46875 -5.515625 Z M 3.46875 -5.515625 "/></g></g></g><g fill="#000000" fill-opacity="1"><g transform="translate(109.006926, 32.737066)"><g><path d="M 5.453125 -2.90625 C 5.453125 -2.78125 5.398438 -2.671875 5.296875 -2.578125 C 5.203125 -2.492188 5.09375 -2.453125 4.96875 -2.453125 L 1.34375 -2.453125 C 1.394531 -1.953125 1.585938 -1.550781 1.921875 -1.25 C 2.253906 -0.945312 2.660156 -0.796875 3.140625 -0.796875 C 3.460938 -0.796875 3.726562 -0.84375 3.9375 -0.9375 C 4.144531 -1.039062 4.328125 -1.164062 4.484375 -1.3125 C 4.585938 -1.375 4.6875 -1.40625 4.78125 -1.40625 C 4.894531 -1.40625 4.988281 -1.363281 5.0625 -1.28125 C 5.144531 -1.195312 5.1875 -1.101562 5.1875 -1 C 5.1875 -0.851562 5.117188 -0.722656 4.984375 -0.609375 C 4.785156 -0.410156 4.519531 -0.238281 4.1875 -0.09375 C 3.863281 0.0390625 3.53125 0.109375 3.1875 0.109375 C 2.632812 0.109375 2.144531 -0.00390625 1.71875 -0.234375 C 1.300781 -0.472656 0.976562 -0.800781 0.75 -1.21875 C 0.519531 -1.632812 0.40625 -2.109375 0.40625 -2.640625 C 0.40625 -3.210938 0.519531 -3.71875 0.75 -4.15625 C 0.988281 -4.59375 1.300781 -4.925781 1.6875 -5.15625 C 2.070312 -5.394531 2.488281 -5.515625 2.9375 -5.515625 C 3.375 -5.515625 3.785156 -5.398438 4.171875 -5.171875 C 4.554688 -4.941406 4.863281 -4.628906 5.09375 -4.234375 C 5.332031 -3.835938 5.453125 -3.394531 5.453125 -2.90625 Z M 2.9375 -4.609375 C 2.550781 -4.609375 2.21875 -4.5 1.9375 -4.28125 C 1.65625 -4.0625 1.472656 -3.726562 1.390625 -3.28125 L 4.421875 -3.28125 L 4.421875 -3.359375 C 4.390625 -3.722656 4.226562 -4.019531 3.9375 -4.25 C 3.644531 -4.488281 3.3125 -4.609375 2.9375 -4.609375 Z M 2.9375 -4.609375 "/></g></g></g><g fill="#000000" fill-opacity="1"><g transform="translate(121.5671, 32.737066)"><g><path d="M 7.015625 -5.4375 C 7.148438 -5.4375 7.265625 -5.390625 7.359375 -5.296875 C 7.453125 -5.203125 7.5 -5.085938 7.5 -4.953125 C 7.5 -4.898438 7.484375 -4.832031 7.453125 -4.75 L 5.875 -0.3125 C 5.832031 -0.195312 5.765625 -0.113281 5.671875 -0.0625 C 5.578125 -0.0078125 5.472656 0.0078125 5.359375 0 C 5.179688 -0.0078125 5.046875 -0.113281 4.953125 -0.3125 L 3.875 -3.109375 L 2.890625 -0.3125 C 2.847656 -0.21875 2.785156 -0.144531 2.703125 -0.09375 C 2.628906 -0.0390625 2.550781 -0.0078125 2.46875 0 C 2.363281 0.0078125 2.257812 -0.0078125 2.15625 -0.0625 C 2.0625 -0.125 2 -0.207031 1.96875 -0.3125 L 0.375 -4.75 C 0.351562 -4.8125 0.34375 -4.878906 0.34375 -4.953125 C 0.34375 -5.085938 0.382812 -5.203125 0.46875 -5.296875 C 0.5625 -5.390625 0.679688 -5.4375 0.828125 -5.4375 C 1.054688 -5.4375 1.207031 -5.332031 1.28125 -5.125 L 2.5 -1.671875 L 3.46875 -4.21875 C 3.550781 -4.425781 3.703125 -4.53125 3.921875 -4.53125 C 4.128906 -4.53125 4.269531 -4.425781 4.34375 -4.21875 L 5.34375 -1.703125 L 6.546875 -5.125 C 6.617188 -5.332031 6.773438 -5.4375 7.015625 -5.4375 Z M 7.015625 -5.4375 "/></g></g></g><g fill="#000000" fill-opacity="1"><g transform="translate(136.0898, 32.737066)"><g><path d="M 0.421875 -0.84375 C 0.359375 -0.9375 0.328125 -1.03125 0.328125 -1.125 C 0.328125 -1.257812 0.398438 -1.375 0.546875 -1.46875 C 0.609375 -1.519531 0.6875 -1.546875 0.78125 -1.546875 C 0.90625 -1.546875 1.019531 -1.492188 1.125 -1.390625 C 1.320312 -1.148438 1.539062 -0.972656 1.78125 -0.859375 C 2.019531 -0.742188 2.300781 -0.6875 2.625 -0.6875 C 2.882812 -0.695312 3.113281 -0.753906 3.3125 -0.859375 C 3.519531 -0.972656 3.625 -1.160156 3.625 -1.421875 C 3.625 -1.648438 3.519531 -1.828125 3.3125 -1.953125 C 3.113281 -2.078125 2.816406 -2.191406 2.421875 -2.296875 C 2.035156 -2.398438 1.71875 -2.503906 1.46875 -2.609375 C 1.21875 -2.722656 1.003906 -2.890625 0.828125 -3.109375 C 0.648438 -3.328125 0.5625 -3.609375 0.5625 -3.953125 C 0.5625 -4.265625 0.648438 -4.535156 0.828125 -4.765625 C 1.003906 -5.003906 1.238281 -5.1875 1.53125 -5.3125 C 1.820312 -5.445312 2.140625 -5.515625 2.484375 -5.515625 C 2.804688 -5.515625 3.128906 -5.453125 3.453125 -5.328125 C 3.785156 -5.203125 4.050781 -5.015625 4.25 -4.765625 C 4.332031 -4.660156 4.375 -4.5625 4.375 -4.46875 C 4.375 -4.351562 4.320312 -4.242188 4.21875 -4.140625 C 4.144531 -4.078125 4.054688 -4.046875 3.953125 -4.046875 C 3.828125 -4.046875 3.726562 -4.085938 3.65625 -4.171875 C 3.507812 -4.335938 3.332031 -4.460938 3.125 -4.546875 C 2.914062 -4.640625 2.6875 -4.6875 2.4375 -4.6875 C 2.175781 -4.6875 1.953125 -4.632812 1.765625 -4.53125 C 1.585938 -4.425781 1.5 -4.242188 1.5 -3.984375 C 1.507812 -3.742188 1.613281 -3.566406 1.8125 -3.453125 C 2.019531 -3.335938 2.332031 -3.222656 2.75 -3.109375 C 3.113281 -3.015625 3.414062 -2.910156 3.65625 -2.796875 C 3.894531 -2.691406 4.09375 -2.53125 4.25 -2.3125 C 4.414062 -2.101562 4.5 -1.820312 4.5 -1.46875 C 4.5 -1.144531 4.40625 -0.863281 4.21875 -0.625 C 4.039062 -0.394531 3.800781 -0.210938 3.5 -0.078125 C 3.195312 0.046875 2.878906 0.109375 2.546875 0.109375 C 2.117188 0.109375 1.71875 0.0351562 1.34375 -0.109375 C 0.976562 -0.265625 0.671875 -0.507812 0.421875 -0.84375 Z M 0.421875 -0.84375 "/></g></g></g></svg>