<svg xmlns="http://www.w3.org/2000/svg" xmlns:xlink="http://www.w3.org/1999/xlink" width="202" zoomAndPan="magnify" viewBox="0 0 151.5 119.249998" height="159" preserveAspectRatio="xMidYMid meet" version="1.0"><defs><g/><clipPath id="d50d73d1b7"><path d="M 16.542969 6.707031 L 128.339844 6.707031 L 128.339844 118.503906 L 16.542969 118.503906 Z M 16.542969 6.707031 " clip-rule="nonzero"/></clipPath><clipPath id="61c8e020ac"><path d="M 72.441406 6.707031 C 41.570312 6.707031 16.542969 31.734375 16.542969 62.605469 C 16.542969 93.476562 41.570312 118.503906 72.441406 118.503906 C 103.3125 118.503906 128.339844 93.476562 128.339844 62.605469 C 128.339844 31.734375 103.3125 6.707031 72.441406 6.707031 Z M 72.441406 6.707031 " clip-rule="nonzero"/></clipPath></defs><g clip-path="url(#d50d73d1b7)"><g clip-path="url(#61c8e020ac)"><path fill="#000000" d="M 16.542969 6.707031 L 128.339844 6.707031 L 128.339844 118.503906 L 16.542969 118.503906 Z M 16.542969 6.707031 " fill-opacity="1" fill-rule="nonzero"/></g></g><g fill="#ffffff" fill-opacity="1"><g transform="translate(24.596049, 73.679828)"><g><path d="M 3.5625 0 L 3.5625 -30.390625 L 14.046875 -30.390625 L 14.046875 -27.203125 L 14.15625 -27.203125 C 16.882812 -29.921875 19.789062 -31.28125 22.875 -31.28125 C 25.082031 -31.28125 27.15625 -30.828125 29.09375 -29.921875 C 31.03125 -29.015625 32.488281 -27.613281 33.46875 -25.71875 C 36.550781 -29.425781 39.910156 -31.28125 43.546875 -31.28125 C 46.785156 -31.28125 49.570312 -30.367188 51.90625 -28.546875 C 54.238281 -26.734375 55.40625 -23.894531 55.40625 -20.03125 L 55.40625 0 L 44.90625 0 L 44.90625 -17.1875 C 44.90625 -18.800781 44.460938 -20.148438 43.578125 -21.234375 C 42.691406 -22.328125 41.359375 -22.875 39.578125 -22.875 C 38.035156 -22.875 36.859375 -22.40625 36.046875 -21.46875 C 35.242188 -20.539062 34.800781 -19.425781 34.71875 -18.125 L 34.71875 0 L 24.234375 0 L 24.234375 -17.1875 C 24.234375 -18.800781 23.785156 -20.148438 22.890625 -21.234375 C 22.003906 -22.328125 20.675781 -22.875 18.90625 -22.875 C 17.28125 -22.875 16.0625 -22.367188 15.25 -21.359375 C 14.445312 -20.347656 14.046875 -19.15625 14.046875 -17.78125 L 14.046875 0 Z M 3.5625 0 "/></g></g></g><g fill="#ffffff" fill-opacity="1"><g transform="translate(77.375288, 73.679828)"><g><path d="M 5.328125 -30.390625 L 5.328125 -41.71875 L 15.8125 -41.71875 L 15.8125 -30.390625 L 22.21875 -30.390625 L 22.21875 -22.390625 L 15.8125 -22.390625 L 15.8125 -12.734375 C 15.8125 -9.929688 16.601562 -8.53125 18.1875 -8.53125 C 18.582031 -8.53125 18.992188 -8.609375 19.421875 -8.765625 C 19.859375 -8.921875 20.195312 -9.082031 20.4375 -9.25 L 20.796875 -9.484375 L 23.40625 -1 C 21.15625 0.257812 18.585938 0.890625 15.703125 0.890625 C 13.722656 0.890625 12.019531 0.546875 10.59375 -0.140625 C 9.175781 -0.835938 8.101562 -1.769531 7.375 -2.9375 C 6.644531 -4.101562 6.117188 -5.328125 5.796875 -6.609375 C 5.484375 -7.890625 5.328125 -9.257812 5.328125 -10.71875 L 5.328125 -22.390625 L 0.953125 -22.390625 L 0.953125 -30.390625 Z M 5.328125 -30.390625 "/></g></g></g><g fill="#ffffff" fill-opacity="1"><g transform="translate(95.204232, 73.679828)"><g/></g></g><g fill="#ffffff" fill-opacity="1"><g transform="translate(105.806177, 73.679828)"><g><path d="M 10.3125 -12.671875 C 12.207031 -12.671875 13.816406 -12.007812 15.140625 -10.6875 C 16.460938 -9.363281 17.125 -7.753906 17.125 -5.859375 C 17.125 -4.003906 16.460938 -2.414062 15.140625 -1.09375 C 13.816406 0.226562 12.207031 0.890625 10.3125 0.890625 C 8.457031 0.890625 6.867188 0.226562 5.546875 -1.09375 C 4.222656 -2.414062 3.5625 -4.003906 3.5625 -5.859375 C 3.5625 -7.753906 4.222656 -9.363281 5.546875 -10.6875 C 6.867188 -12.007812 8.457031 -12.671875 10.3125 -12.671875 Z M 10.3125 -12.671875 "/></g></g></g><g fill="#ffffff" fill-opacity="1"><g transform="translate(46.993815, 86.30193)"><g><path d="M 4.03125 -6.390625 C 5.457031 -6.390625 6.171875 -5.53125 6.171875 -3.8125 L 6.171875 -0.578125 C 6.171875 -0.410156 6.117188 -0.269531 6.015625 -0.15625 C 5.910156 -0.0507812 5.773438 0 5.609375 0 C 5.441406 0 5.304688 -0.0507812 5.203125 -0.15625 C 5.097656 -0.269531 5.046875 -0.410156 5.046875 -0.578125 L 5.046875 -3.796875 C 5.046875 -4.265625 4.9375 -4.640625 4.71875 -4.921875 C 4.507812 -5.203125 4.160156 -5.34375 3.671875 -5.34375 C 3.347656 -5.34375 3.054688 -5.269531 2.796875 -5.125 C 2.546875 -4.988281 2.347656 -4.800781 2.203125 -4.5625 C 2.054688 -4.332031 1.984375 -4.078125 1.984375 -3.796875 L 1.984375 -0.578125 C 1.984375 -0.410156 1.925781 -0.269531 1.8125 -0.15625 C 1.707031 -0.0507812 1.570312 0 1.40625 0 C 1.238281 0 1.101562 -0.0507812 1 -0.15625 C 0.894531 -0.269531 0.84375 -0.410156 0.84375 -0.578125 L 0.84375 -5.671875 C 0.84375 -5.828125 0.894531 -5.960938 1 -6.078125 C 1.113281 -6.191406 1.25 -6.25 1.40625 -6.25 C 1.570312 -6.25 1.707031 -6.191406 1.8125 -6.078125 C 1.925781 -5.960938 1.984375 -5.828125 1.984375 -5.671875 L 1.984375 -5.25 C 2.179688 -5.570312 2.460938 -5.84375 2.828125 -6.0625 C 3.203125 -6.28125 3.601562 -6.390625 4.03125 -6.390625 Z M 4.03125 -6.390625 "/></g></g></g><g fill="#ffffff" fill-opacity="1"><g transform="translate(61.788866, 86.30193)"><g><path d="M 6.328125 -3.359375 C 6.316406 -3.210938 6.253906 -3.085938 6.140625 -2.984375 C 6.035156 -2.890625 5.910156 -2.84375 5.765625 -2.84375 L 1.5625 -2.84375 C 1.613281 -2.269531 1.832031 -1.804688 2.21875 -1.453125 C 2.601562 -1.109375 3.078125 -0.9375 3.640625 -0.9375 C 4.015625 -0.9375 4.320312 -0.988281 4.5625 -1.09375 C 4.800781 -1.207031 5.015625 -1.351562 5.203125 -1.53125 C 5.316406 -1.601562 5.429688 -1.640625 5.546875 -1.640625 C 5.679688 -1.640625 5.789062 -1.585938 5.875 -1.484375 C 5.96875 -1.390625 6.015625 -1.28125 6.015625 -1.15625 C 6.015625 -0.988281 5.9375 -0.835938 5.78125 -0.703125 C 5.550781 -0.472656 5.242188 -0.273438 4.859375 -0.109375 C 4.484375 0.046875 4.097656 0.125 3.703125 0.125 C 3.054688 0.125 2.488281 -0.0078125 2 -0.28125 C 1.507812 -0.550781 1.128906 -0.925781 0.859375 -1.40625 C 0.597656 -1.894531 0.46875 -2.445312 0.46875 -3.0625 C 0.46875 -3.726562 0.601562 -4.3125 0.875 -4.8125 C 1.144531 -5.320312 1.503906 -5.710938 1.953125 -5.984375 C 2.410156 -6.253906 2.894531 -6.390625 3.40625 -6.390625 C 3.914062 -6.390625 4.394531 -6.257812 4.84375 -6 C 5.289062 -5.738281 5.644531 -5.375 5.90625 -4.90625 C 6.175781 -4.445312 6.316406 -3.929688 6.328125 -3.359375 Z M 3.40625 -5.34375 C 2.957031 -5.34375 2.570312 -5.21875 2.25 -4.96875 C 1.925781 -4.71875 1.710938 -4.328125 1.609375 -3.796875 L 5.125 -3.796875 L 5.125 -3.90625 C 5.082031 -4.320312 4.890625 -4.664062 4.546875 -4.9375 C 4.210938 -5.207031 3.832031 -5.34375 3.40625 -5.34375 Z M 3.40625 -5.34375 "/></g></g></g><g fill="#ffffff" fill-opacity="1"><g transform="translate(76.357471, 86.30193)"><g><path d="M 8.140625 -6.3125 C 8.296875 -6.3125 8.425781 -6.253906 8.53125 -6.140625 C 8.632812 -6.035156 8.6875 -5.898438 8.6875 -5.734375 C 8.6875 -5.679688 8.671875 -5.609375 8.640625 -5.515625 L 6.8125 -0.359375 C 6.769531 -0.234375 6.691406 -0.132812 6.578125 -0.0625 C 6.460938 0 6.34375 0.0195312 6.21875 0 C 6.007812 -0.0195312 5.847656 -0.140625 5.734375 -0.359375 L 4.5 -3.59375 L 3.34375 -0.359375 C 3.300781 -0.242188 3.234375 -0.15625 3.140625 -0.09375 C 3.054688 -0.0390625 2.960938 -0.0078125 2.859375 0 C 2.742188 0.0195312 2.628906 0 2.515625 -0.0625 C 2.398438 -0.132812 2.320312 -0.234375 2.28125 -0.359375 L 0.421875 -5.515625 C 0.398438 -5.578125 0.390625 -5.648438 0.390625 -5.734375 C 0.390625 -5.890625 0.441406 -6.023438 0.546875 -6.140625 C 0.648438 -6.253906 0.785156 -6.3125 0.953125 -6.3125 C 1.222656 -6.3125 1.398438 -6.191406 1.484375 -5.953125 L 2.890625 -1.9375 L 4.03125 -4.90625 C 4.125 -5.132812 4.296875 -5.25 4.546875 -5.25 C 4.785156 -5.25 4.953125 -5.132812 5.046875 -4.90625 L 6.203125 -1.984375 L 7.59375 -5.953125 C 7.675781 -6.191406 7.859375 -6.3125 8.140625 -6.3125 Z M 8.140625 -6.3125 "/></g></g></g><g fill="#ffffff" fill-opacity="1"><g transform="translate(93.202419, 86.30193)"><g><path d="M 0.484375 -0.984375 C 0.410156 -1.085938 0.375 -1.191406 0.375 -1.296875 C 0.375 -1.453125 0.457031 -1.585938 0.625 -1.703125 C 0.707031 -1.753906 0.800781 -1.78125 0.90625 -1.78125 C 1.050781 -1.78125 1.179688 -1.722656 1.296875 -1.609375 C 1.535156 -1.335938 1.789062 -1.132812 2.0625 -1 C 2.34375 -0.863281 2.671875 -0.796875 3.046875 -0.796875 C 3.347656 -0.804688 3.613281 -0.875 3.84375 -1 C 4.082031 -1.132812 4.203125 -1.347656 4.203125 -1.640625 C 4.203125 -1.910156 4.082031 -2.117188 3.84375 -2.265625 C 3.613281 -2.410156 3.269531 -2.539062 2.8125 -2.65625 C 2.363281 -2.78125 1.992188 -2.90625 1.703125 -3.03125 C 1.410156 -3.164062 1.160156 -3.359375 0.953125 -3.609375 C 0.753906 -3.859375 0.65625 -4.1875 0.65625 -4.59375 C 0.65625 -4.945312 0.753906 -5.257812 0.953125 -5.53125 C 1.160156 -5.800781 1.429688 -6.007812 1.765625 -6.15625 C 2.109375 -6.3125 2.476562 -6.390625 2.875 -6.390625 C 3.257812 -6.390625 3.640625 -6.316406 4.015625 -6.171875 C 4.390625 -6.035156 4.695312 -5.816406 4.9375 -5.515625 C 5.03125 -5.410156 5.078125 -5.296875 5.078125 -5.171875 C 5.078125 -5.046875 5.015625 -4.921875 4.890625 -4.796875 C 4.804688 -4.734375 4.707031 -4.703125 4.59375 -4.703125 C 4.445312 -4.703125 4.332031 -4.75 4.25 -4.84375 C 4.082031 -5.03125 3.875 -5.175781 3.625 -5.28125 C 3.382812 -5.382812 3.117188 -5.4375 2.828125 -5.4375 C 2.523438 -5.4375 2.265625 -5.375 2.046875 -5.25 C 1.835938 -5.125 1.734375 -4.914062 1.734375 -4.625 C 1.742188 -4.34375 1.863281 -4.132812 2.09375 -4 C 2.332031 -3.863281 2.695312 -3.734375 3.1875 -3.609375 C 3.601562 -3.503906 3.953125 -3.382812 4.234375 -3.25 C 4.515625 -3.125 4.75 -2.9375 4.9375 -2.6875 C 5.125 -2.4375 5.21875 -2.109375 5.21875 -1.703125 C 5.21875 -1.328125 5.109375 -1.003906 4.890625 -0.734375 C 4.679688 -0.460938 4.40625 -0.25 4.0625 -0.09375 C 3.71875 0.0507812 3.347656 0.125 2.953125 0.125 C 2.453125 0.125 1.988281 0.0351562 1.5625 -0.140625 C 1.144531 -0.316406 0.785156 -0.597656 0.484375 -0.984375 Z M 0.484375 -0.984375 "/></g></g></g></svg>