<svg xmlns="http://www.w3.org/2000/svg" xmlns:xlink="http://www.w3.org/1999/xlink" width="225" zoomAndPan="magnify" viewBox="0 0 168.75 95.999999" height="128" preserveAspectRatio="xMidYMid meet" version="1.0"><defs><g/></defs><g fill="#ffffff" fill-opacity="1"><g transform="translate(15.560287, 66.80596)"><g><path d="M 19.066406 -2.183594 C 17.179688 -2.183594 15.289062 -2.597656 13.636719 -3.484375 C 8.558594 -6.140625 5.84375 -12.398438 5.84375 -18.65625 C 5.84375 -25.855469 8.914062 -34.238281 15.878906 -36.304688 C 16 -36.304688 16.058594 -36.363281 16.175781 -36.363281 C 17.0625 -36.601562 18.125 -36.71875 19.125 -36.71875 C 23.199219 -36.71875 26.445312 -34.652344 28.75 -31.582031 C 28.75 -31.523438 28.808594 -31.523438 28.808594 -31.523438 L 28.808594 -31.464844 C 29.753906 -30.105469 30.226562 -28.984375 30.226562 -28.984375 L 30.226562 -38.195312 C 29.695312 -36.953125 28.277344 -36.363281 27.390625 -36.835938 L 27.332031 -36.894531 C 24.914062 -38.253906 22.136719 -39.019531 19.125 -39.019531 C 18.125 -39.019531 17.0625 -38.902344 16.117188 -38.726562 L 16.117188 -38.785156 C 15.703125 -38.726562 15.347656 -38.609375 14.933594 -38.488281 C 7.023438 -36.421875 1.121094 -28.632812 1.121094 -19.421875 C 1.121094 -9.503906 7.910156 -1.296875 16.707031 0 C 17.472656 0.117188 18.300781 0.175781 19.066406 0.175781 C 25.265625 0.175781 30.636719 -3.660156 33.589844 -9.386719 L 32.585938 -9.679688 C 29.988281 -4.957031 24.203125 -2.183594 19.066406 -2.183594 Z M 19.066406 -2.183594 "/></g></g></g><g fill="#ffffff" fill-opacity="1"><g transform="translate(50.270377, 66.80596)"><g><path d="M 28.101562 -2.421875 L 28.101562 -36.363281 C 28.21875 -38.019531 30.933594 -38.785156 30.933594 -38.785156 L 20.542969 -38.785156 C 20.542969 -38.785156 23.257812 -38.019531 23.378906 -36.421875 L 23.378906 -20.542969 L 9.800781 -20.542969 L 9.800781 -36.421875 C 9.859375 -38.019531 12.574219 -38.785156 12.574219 -38.785156 L 2.242188 -38.785156 C 2.242188 -38.785156 4.957031 -38.019531 5.019531 -36.363281 L 5.019531 -2.421875 C 4.957031 -0.765625 2.242188 0 2.242188 0 L 12.574219 0 C 12.574219 0 9.859375 -0.828125 9.800781 -2.421875 L 9.800781 -18.183594 L 23.378906 -18.183594 L 23.378906 -2.421875 C 23.257812 -0.828125 20.542969 0 20.542969 0 L 30.933594 0 C 30.933594 0 28.277344 -0.828125 28.101562 -2.421875 Z M 28.101562 -2.421875 "/></g></g></g><g fill="#ffffff" fill-opacity="1"><g transform="translate(83.386644, 66.80596)"><g><path d="M 12.574219 -38.785156 L 2.242188 -38.785156 C 2.242188 -38.785156 4.957031 -38.019531 5.019531 -36.363281 L 5.019531 -2.421875 C 4.957031 -0.765625 2.242188 0 2.242188 0 L 12.574219 0 C 12.574219 0 9.859375 -0.828125 9.800781 -2.421875 L 9.800781 -36.421875 C 9.859375 -38.019531 12.574219 -38.785156 12.574219 -38.785156 Z M 12.574219 -38.785156 "/></g></g></g><g fill="#ffffff" fill-opacity="1"><g transform="translate(98.203361, 66.80596)"><g><path d="M 14.699219 -38.785156 L 2.242188 -38.785156 C 2.242188 -38.785156 4.957031 -38.019531 5.019531 -36.363281 L 5.019531 -2.421875 C 4.957031 -0.765625 2.242188 0 2.242188 0 L 12.574219 0 C 12.574219 0 10.09375 -0.648438 9.800781 -2.183594 L 9.800781 -18.59375 L 14.699219 -18.59375 C 20.308594 -18.59375 24.914062 -23.316406 24.914062 -28.632812 C 24.914062 -34.003906 20.308594 -38.785156 14.699219 -38.785156 Z M 12.929688 -20.070312 L 9.800781 -20.070312 L 9.800781 -36.601562 C 9.859375 -37.015625 10.210938 -37.25 10.625 -37.25 L 12.929688 -37.25 C 17.710938 -37.25 20.425781 -32.761719 20.425781 -28.632812 C 20.425781 -24.617188 17.945312 -20.070312 12.929688 -20.070312 Z M 12.929688 -20.070312 "/></g></g></g><g fill="#ffffff" fill-opacity="1"><g transform="translate(124.235941, 66.80596)"><g><path d="M 26.035156 -38.785156 L 3.246094 -38.785156 L 3.246094 -33.707031 C 3.246094 -33.707031 3.957031 -36.011719 5.429688 -36.421875 L 20.128906 -36.421875 L 2.242188 0 L 25.03125 0 L 25.03125 -5.136719 C 25.03125 -5.136719 24.261719 -2.773438 22.847656 -2.363281 L 8.085938 -2.363281 Z M 26.035156 -38.785156 "/></g></g></g><g fill="#ffffff" fill-opacity="1"><g transform="translate(60.058126, 85.288302)"><g><path d="M 0.765625 0 L 0.765625 -7.09375 L 2.78125 -7.09375 C 3.4375 -7.09375 3.925781 -6.9375 4.25 -6.625 C 4.570312 -6.3125 4.734375 -5.835938 4.734375 -5.203125 C 4.734375 -4.867188 4.648438 -4.578125 4.484375 -4.328125 C 4.316406 -4.078125 4.09375 -3.878906 3.8125 -3.734375 C 4.144531 -3.640625 4.40625 -3.441406 4.59375 -3.140625 C 4.78125 -2.835938 4.875 -2.472656 4.875 -2.046875 C 4.875 -1.410156 4.695312 -0.910156 4.34375 -0.546875 C 4 -0.179688 3.503906 0 2.859375 0 Z M 1.65625 -3.3125 L 1.65625 -0.765625 L 2.875 -0.765625 C 3.21875 -0.765625 3.488281 -0.875 3.6875 -1.09375 C 3.882812 -1.320312 3.984375 -1.632812 3.984375 -2.03125 C 3.984375 -2.882812 3.617188 -3.3125 2.890625 -3.3125 Z M 1.65625 -4.078125 L 2.796875 -4.078125 C 3.109375 -4.078125 3.359375 -4.175781 3.546875 -4.375 C 3.742188 -4.582031 3.84375 -4.863281 3.84375 -5.21875 C 3.84375 -5.601562 3.753906 -5.882812 3.578125 -6.0625 C 3.398438 -6.238281 3.132812 -6.328125 2.78125 -6.328125 L 1.65625 -6.328125 Z M 1.65625 -4.078125 "/></g></g></g><g fill="#ffffff" fill-opacity="1"><g transform="translate(69.635913, 85.288302)"><g><path d="M 4.078125 -1.859375 L 1.671875 -1.859375 L 1.125 0 L 0.203125 0 L 2.5 -7.09375 L 3.265625 -7.09375 L 5.546875 0 L 4.640625 0 Z M 1.90625 -2.625 L 3.84375 -2.625 L 2.875 -5.84375 Z M 1.90625 -2.625 "/></g></g></g><g fill="#ffffff" fill-opacity="1"><g transform="translate(79.520737, 85.288302)"><g><path d="M 2.359375 -3.265625 L 1.65625 -2.421875 L 1.65625 0 L 0.765625 0 L 0.765625 -7.09375 L 1.65625 -7.09375 L 1.65625 -3.671875 L 2.25 -4.453125 L 4.15625 -7.09375 L 5.21875 -7.09375 L 2.921875 -3.96875 L 5.40625 0 L 4.34375 0 Z M 2.359375 -3.265625 "/></g></g></g><g fill="#ffffff" fill-opacity="1"><g transform="translate(89.093645, 85.288302)"><g><path d="M 4.171875 -3.28125 L 1.65625 -3.28125 L 1.65625 -0.765625 L 4.578125 -0.765625 L 4.578125 0 L 0.765625 0 L 0.765625 -7.09375 L 4.53125 -7.09375 L 4.53125 -6.328125 L 1.65625 -6.328125 L 1.65625 -4.046875 L 4.171875 -4.046875 Z M 4.171875 -3.28125 "/></g></g></g><g fill="#ffffff" fill-opacity="1"><g transform="translate(98.184064, 85.288302)"><g><path d="M 2.90625 -2.875 L 1.65625 -2.875 L 1.65625 0 L 0.765625 0 L 0.765625 -7.09375 L 2.75 -7.09375 C 3.445312 -7.09375 3.972656 -6.910156 4.328125 -6.546875 C 4.691406 -6.191406 4.875 -5.664062 4.875 -4.96875 C 4.875 -4.53125 4.773438 -4.144531 4.578125 -3.8125 C 4.390625 -3.488281 4.117188 -3.242188 3.765625 -3.078125 L 5.140625 -0.0625 L 5.140625 0 L 4.171875 0 Z M 1.65625 -3.640625 L 2.75 -3.640625 C 3.125 -3.640625 3.421875 -3.757812 3.640625 -4 C 3.859375 -4.238281 3.96875 -4.5625 3.96875 -4.96875 C 3.96875 -5.875 3.554688 -6.328125 2.734375 -6.328125 L 1.65625 -6.328125 Z M 1.65625 -3.640625 "/></g></g></g><g fill="#ffffff" fill-opacity="1"><g transform="translate(107.615641, 85.288302)"><g><path d="M 2.609375 -3.53125 L 4.0625 -7.09375 L 5.078125 -7.09375 L 3.0625 -2.640625 L 3.0625 0 L 2.171875 0 L 2.171875 -2.640625 L 0.140625 -7.09375 L 1.15625 -7.09375 Z M 2.609375 -3.53125 "/></g></g></g></svg>