<svg xmlns="http://www.w3.org/2000/svg" xmlns:xlink="http://www.w3.org/1999/xlink" width="422" zoomAndPan="magnify" viewBox="0 0 316.5 98.999996" height="132" preserveAspectRatio="xMidYMid meet" version="1.0"><defs><g/></defs><g fill="#000000" fill-opacity="1"><g transform="translate(22.557984, 63.35311)"><g><path d="M 3.0625 0 L 3.0625 -26.234375 L 12.109375 -26.234375 L 12.109375 -23.46875 L 12.21875 -23.46875 C 14.570312 -25.820312 17.078125 -27 19.734375 -27 C 21.640625 -27 23.425781 -26.601562 25.09375 -25.8125 C 26.769531 -25.03125 28.035156 -23.820312 28.890625 -22.1875 C 31.546875 -25.394531 34.441406 -27 37.578125 -27 C 40.367188 -27 42.769531 -26.210938 44.78125 -24.640625 C 46.789062 -23.078125 47.796875 -20.625 47.796875 -17.28125 L 47.796875 0 L 38.75 0 L 38.75 -14.828125 C 38.75 -16.222656 38.363281 -17.390625 37.59375 -18.328125 C 36.832031 -19.265625 35.6875 -19.734375 34.15625 -19.734375 C 32.820312 -19.734375 31.804688 -19.332031 31.109375 -18.53125 C 30.410156 -17.726562 30.023438 -16.765625 29.953125 -15.640625 L 29.953125 0 L 20.90625 0 L 20.90625 -14.828125 C 20.90625 -16.222656 20.519531 -17.390625 19.75 -18.328125 C 18.988281 -19.265625 17.84375 -19.734375 16.3125 -19.734375 C 14.914062 -19.734375 13.863281 -19.296875 13.15625 -18.421875 C 12.457031 -17.554688 12.109375 -16.53125 12.109375 -15.34375 L 12.109375 0 Z M 3.0625 0 "/></g></g></g><g fill="#000000" fill-opacity="1"><g transform="translate(68.103159, 63.35311)"><g><path d="M 11.609375 -26.234375 L 11.609375 -13.75 C 11.609375 -11.15625 12 -9.3125 12.78125 -8.21875 C 13.5625 -7.132812 14.890625 -6.59375 16.765625 -6.59375 C 18.640625 -6.59375 19.96875 -7.132812 20.75 -8.21875 C 21.539062 -9.3125 21.9375 -11.15625 21.9375 -13.75 L 21.9375 -26.234375 L 30.984375 -26.234375 L 30.984375 -11.546875 C 30.984375 -7.191406 29.847656 -4.050781 27.578125 -2.125 C 25.316406 -0.195312 21.710938 0.765625 16.765625 0.765625 C 11.828125 0.765625 8.222656 -0.195312 5.953125 -2.125 C 3.691406 -4.050781 2.5625 -7.191406 2.5625 -11.546875 L 2.5625 -26.234375 Z M 11.609375 -26.234375 "/></g></g></g><g fill="#000000" fill-opacity="1"><g transform="translate(96.830356, 63.35311)"><g><path d="M 3.0625 0 L 3.0625 -26.234375 L 12.109375 -26.234375 L 12.109375 -23.46875 L 12.21875 -23.46875 C 14.570312 -25.820312 17.078125 -27 19.734375 -27 C 21.023438 -27 22.3125 -26.828125 23.59375 -26.484375 C 24.875 -26.140625 26.097656 -25.609375 27.265625 -24.890625 C 28.441406 -24.179688 29.394531 -23.171875 30.125 -21.859375 C 30.863281 -20.546875 31.234375 -19.019531 31.234375 -17.28125 L 31.234375 0 L 22.1875 0 L 22.1875 -14.828125 C 22.1875 -16.191406 21.75 -17.382812 20.875 -18.40625 C 20.007812 -19.425781 18.878906 -19.9375 17.484375 -19.9375 C 16.117188 -19.9375 14.878906 -19.40625 13.765625 -18.34375 C 12.660156 -17.289062 12.109375 -16.117188 12.109375 -14.828125 L 12.109375 0 Z M 3.0625 0 "/></g></g></g><g fill="#000000" fill-opacity="1"><g transform="translate(125.813149, 63.35311)"><g><path d="M 4.84375 -3.25 C 2.394531 -5.925781 1.171875 -9.207031 1.171875 -13.09375 C 1.171875 -16.976562 2.394531 -20.265625 4.84375 -22.953125 C 7.300781 -25.648438 10.425781 -27 14.21875 -27 C 17.6875 -27 20.546875 -25.90625 22.796875 -23.71875 L 22.796875 -43.96875 L 31.84375 -43.96875 L 31.84375 0 L 22.90625 0 L 22.90625 -2.96875 L 22.796875 -2.96875 C 20.546875 -0.476562 17.6875 0.765625 14.21875 0.765625 C 10.425781 0.765625 7.300781 -0.570312 4.84375 -3.25 Z M 12.546875 -17.53125 C 11.367188 -16.375 10.78125 -14.890625 10.78125 -13.078125 C 10.78125 -11.273438 11.34375 -9.800781 12.46875 -8.65625 C 13.59375 -7.519531 15.078125 -6.953125 16.921875 -6.953125 C 18.691406 -6.953125 20.144531 -7.53125 21.28125 -8.6875 C 22.425781 -9.84375 23 -11.3125 23 -13.09375 C 23 -14.894531 22.410156 -16.375 21.234375 -17.53125 C 20.066406 -18.695312 18.628906 -19.28125 16.921875 -19.28125 C 15.179688 -19.28125 13.722656 -18.695312 12.546875 -17.53125 Z M 12.546875 -17.53125 "/></g></g></g><g fill="#000000" fill-opacity="1"><g transform="translate(155.920537, 63.35311)"><g><path d="M 5.546875 -3.109375 C 2.628906 -5.703125 1.171875 -9.023438 1.171875 -13.078125 C 1.171875 -17.140625 2.6875 -20.472656 5.71875 -23.078125 C 8.757812 -25.691406 12.507812 -27 16.96875 -27 C 21.363281 -27 25.070312 -25.6875 28.09375 -23.0625 C 31.113281 -20.4375 32.625 -17.113281 32.625 -13.09375 C 32.625 -9.070312 31.144531 -5.753906 28.1875 -3.140625 C 25.238281 -0.535156 21.5 0.765625 16.96875 0.765625 C 12.269531 0.765625 8.460938 -0.523438 5.546875 -3.109375 Z M 12.546875 -17.53125 C 11.367188 -16.375 10.78125 -14.890625 10.78125 -13.078125 C 10.78125 -11.273438 11.34375 -9.800781 12.46875 -8.65625 C 13.59375 -7.519531 15.078125 -6.953125 16.921875 -6.953125 C 18.691406 -6.953125 20.144531 -7.53125 21.28125 -8.6875 C 22.425781 -9.84375 23 -11.3125 23 -13.09375 C 23 -14.894531 22.410156 -16.375 21.234375 -17.53125 C 20.066406 -18.695312 18.628906 -19.28125 16.921875 -19.28125 C 15.179688 -19.28125 13.722656 -18.695312 12.546875 -17.53125 Z M 12.546875 -17.53125 "/></g></g></g><g fill="#000000" fill-opacity="1"><g transform="translate(184.903329, 63.35311)"><g><path d="M 4.59375 -26.234375 L 4.59375 -35.984375 L 13.65625 -35.984375 L 13.65625 -26.234375 L 19.171875 -26.234375 L 19.171875 -19.328125 L 13.65625 -19.328125 L 13.65625 -10.984375 C 13.65625 -8.566406 14.335938 -7.359375 15.703125 -7.359375 C 16.035156 -7.359375 16.390625 -7.425781 16.765625 -7.5625 C 17.140625 -7.695312 17.429688 -7.832031 17.640625 -7.96875 L 17.9375 -8.1875 L 20.1875 -0.875 C 18.25 0.21875 16.035156 0.765625 13.546875 0.765625 C 11.835938 0.765625 10.367188 0.46875 9.140625 -0.125 C 7.921875 -0.71875 6.992188 -1.515625 6.359375 -2.515625 C 5.734375 -3.523438 5.28125 -4.582031 5 -5.6875 C 4.726562 -6.800781 4.59375 -7.988281 4.59375 -9.25 L 4.59375 -19.328125 L 0.8125 -19.328125 L 0.8125 -26.234375 Z M 4.59375 -26.234375 "/></g></g></g><g fill="#000000" fill-opacity="1"><g transform="translate(200.288585, 63.35311)"><g><path d="M 29.59375 -11.859375 L 10.578125 -11.859375 C 10.578125 -10.015625 11.171875 -8.648438 12.359375 -7.765625 C 13.554688 -6.878906 14.851562 -6.4375 16.25 -6.4375 C 17.71875 -6.4375 18.878906 -6.632812 19.734375 -7.03125 C 20.585938 -7.425781 21.554688 -8.203125 22.640625 -9.359375 L 29.1875 -6.078125 C 26.46875 -1.515625 21.9375 0.765625 15.59375 0.765625 C 11.632812 0.765625 8.238281 -0.585938 5.40625 -3.296875 C 2.582031 -6.003906 1.171875 -9.265625 1.171875 -13.078125 C 1.171875 -16.898438 2.582031 -20.175781 5.40625 -22.90625 C 8.238281 -25.632812 11.632812 -27 15.59375 -27 C 19.75 -27 23.128906 -25.796875 25.734375 -23.390625 C 28.347656 -20.984375 29.65625 -17.550781 29.65625 -13.09375 C 29.65625 -12.476562 29.632812 -12.066406 29.59375 -11.859375 Z M 10.84375 -16.875 L 20.8125 -16.875 C 20.601562 -18.238281 20.0625 -19.285156 19.1875 -20.015625 C 18.320312 -20.742188 17.207031 -21.109375 15.84375 -21.109375 C 14.34375 -21.109375 13.148438 -20.71875 12.265625 -19.9375 C 11.378906 -19.15625 10.90625 -18.132812 10.84375 -16.875 Z M 10.84375 -16.875 "/></g></g></g><g fill="#000000" fill-opacity="1"><g transform="translate(226.306502, 63.35311)"><g><path d="M 17.03125 -19.578125 C 15.320312 -19.578125 13.851562 -18.945312 12.625 -17.6875 C 11.394531 -16.425781 10.78125 -14.910156 10.78125 -13.140625 C 10.78125 -11.328125 11.394531 -9.789062 12.625 -8.53125 C 13.851562 -7.269531 15.320312 -6.640625 17.03125 -6.640625 C 17.84375 -6.640625 18.613281 -6.742188 19.34375 -6.953125 C 20.082031 -7.160156 20.625 -7.363281 20.96875 -7.5625 L 21.421875 -7.875 L 24.484375 -1.578125 C 24.242188 -1.410156 23.910156 -1.195312 23.484375 -0.9375 C 23.066406 -0.6875 22.097656 -0.34375 20.578125 0.09375 C 19.054688 0.539062 17.429688 0.765625 15.703125 0.765625 C 11.847656 0.765625 8.460938 -0.585938 5.546875 -3.296875 C 2.628906 -6.003906 1.171875 -9.25 1.171875 -13.03125 C 1.171875 -16.851562 2.628906 -20.132812 5.546875 -22.875 C 8.460938 -25.625 11.847656 -27 15.703125 -27 C 17.429688 -27 19.03125 -26.789062 20.5 -26.375 C 21.96875 -25.96875 23.007812 -25.5625 23.625 -25.15625 L 24.484375 -24.546875 L 21.421875 -18.359375 C 20.296875 -19.171875 18.832031 -19.578125 17.03125 -19.578125 Z M 17.03125 -19.578125 "/></g></g></g><g fill="#000000" fill-opacity="1"><g transform="translate(246.59915, 63.35311)"><g><path d="M 3.0625 0 L 3.0625 -43.96875 L 12.109375 -43.96875 L 12.109375 -23.46875 L 12.21875 -23.46875 C 14.570312 -25.820312 17.078125 -27 19.734375 -27 C 21.023438 -27 22.3125 -26.828125 23.59375 -26.484375 C 24.875 -26.140625 26.097656 -25.609375 27.265625 -24.890625 C 28.441406 -24.179688 29.394531 -23.171875 30.125 -21.859375 C 30.863281 -20.546875 31.234375 -19.019531 31.234375 -17.28125 L 31.234375 0 L 22.1875 0 L 22.1875 -14.828125 C 22.1875 -16.191406 21.75 -17.382812 20.875 -18.40625 C 20.007812 -19.425781 18.878906 -19.9375 17.484375 -19.9375 C 16.117188 -19.9375 14.878906 -19.40625 13.765625 -18.34375 C 12.660156 -17.289062 12.109375 -16.117188 12.109375 -14.828125 L 12.109375 0 Z M 3.0625 0 "/></g></g></g><g fill="#000000" fill-opacity="1"><g transform="translate(275.581942, 63.35311)"><g><path d="M 8.890625 -10.9375 C 10.523438 -10.9375 11.914062 -10.363281 13.0625 -9.21875 C 14.207031 -8.082031 14.78125 -6.695312 14.78125 -5.0625 C 14.78125 -3.457031 14.207031 -2.082031 13.0625 -0.9375 C 11.914062 0.195312 10.523438 0.765625 8.890625 0.765625 C 7.296875 0.765625 5.925781 0.195312 4.78125 -0.9375 C 3.632812 -2.082031 3.0625 -3.457031 3.0625 -5.0625 C 3.0625 -6.695312 3.632812 -8.082031 4.78125 -9.21875 C 5.925781 -10.363281 7.296875 -10.9375 8.890625 -10.9375 Z M 8.890625 -10.9375 "/></g></g></g><g fill="#000000" fill-opacity="1"><g transform="translate(111.675242, 77.240454)"><g><path d="M 2.1875 -4.4375 L 2.1875 -1.375 C 2.1875 -1.03125 2.34375 -0.859375 2.65625 -0.859375 C 2.695312 -0.859375 2.757812 -0.867188 2.84375 -0.890625 C 2.925781 -0.910156 2.992188 -0.921875 3.046875 -0.921875 C 3.128906 -0.921875 3.203125 -0.882812 3.265625 -0.8125 C 3.328125 -0.738281 3.359375 -0.644531 3.359375 -0.53125 C 3.359375 -0.382812 3.273438 -0.257812 3.109375 -0.15625 C 2.953125 -0.0507812 2.769531 0 2.5625 0 C 2.332031 0 2.125 -0.0195312 1.9375 -0.0625 C 1.75 -0.113281 1.582031 -0.238281 1.4375 -0.4375 C 1.289062 -0.632812 1.21875 -0.929688 1.21875 -1.328125 L 1.21875 -4.4375 L 0.609375 -4.4375 C 0.484375 -4.4375 0.378906 -4.476562 0.296875 -4.5625 C 0.210938 -4.644531 0.171875 -4.753906 0.171875 -4.890625 C 0.171875 -5.015625 0.210938 -5.117188 0.296875 -5.203125 C 0.378906 -5.285156 0.484375 -5.328125 0.609375 -5.328125 L 1.21875 -5.328125 L 1.21875 -6.1875 C 1.21875 -6.320312 1.257812 -6.4375 1.34375 -6.53125 C 1.4375 -6.632812 1.554688 -6.6875 1.703125 -6.6875 C 1.835938 -6.6875 1.953125 -6.632812 2.046875 -6.53125 C 2.140625 -6.4375 2.1875 -6.320312 2.1875 -6.1875 L 2.1875 -5.328125 L 3.046875 -5.328125 C 3.171875 -5.328125 3.273438 -5.28125 3.359375 -5.1875 C 3.453125 -5.101562 3.5 -5 3.5 -4.875 C 3.5 -4.738281 3.453125 -4.628906 3.359375 -4.546875 C 3.273438 -4.472656 3.171875 -4.4375 3.046875 -4.4375 Z M 2.1875 -4.4375 "/></g></g></g><g fill="#000000" fill-opacity="1"><g transform="translate(122.292988, 77.240454)"><g><path d="M 5.453125 -2.90625 C 5.453125 -2.78125 5.398438 -2.671875 5.296875 -2.578125 C 5.203125 -2.492188 5.09375 -2.453125 4.96875 -2.453125 L 1.34375 -2.453125 C 1.394531 -1.953125 1.585938 -1.550781 1.921875 -1.25 C 2.253906 -0.945312 2.660156 -0.796875 3.140625 -0.796875 C 3.460938 -0.796875 3.726562 -0.84375 3.9375 -0.9375 C 4.144531 -1.039062 4.328125 -1.164062 4.484375 -1.3125 C 4.585938 -1.375 4.6875 -1.40625 4.78125 -1.40625 C 4.894531 -1.40625 4.988281 -1.363281 5.0625 -1.28125 C 5.144531 -1.195312 5.1875 -1.101562 5.1875 -1 C 5.1875 -0.851562 5.117188 -0.722656 4.984375 -0.609375 C 4.785156 -0.410156 4.519531 -0.238281 4.1875 -0.09375 C 3.863281 0.0390625 3.53125 0.109375 3.1875 0.109375 C 2.632812 0.109375 2.144531 -0.00390625 1.71875 -0.234375 C 1.300781 -0.472656 0.976562 -0.800781 0.75 -1.21875 C 0.519531 -1.632812 0.40625 -2.109375 0.40625 -2.640625 C 0.40625 -3.210938 0.519531 -3.71875 0.75 -4.15625 C 0.988281 -4.59375 1.300781 -4.925781 1.6875 -5.15625 C 2.070312 -5.394531 2.488281 -5.515625 2.9375 -5.515625 C 3.375 -5.515625 3.785156 -5.398438 4.171875 -5.171875 C 4.554688 -4.941406 4.863281 -4.628906 5.09375 -4.234375 C 5.332031 -3.835938 5.453125 -3.394531 5.453125 -2.90625 Z M 2.9375 -4.609375 C 2.550781 -4.609375 2.21875 -4.5 1.9375 -4.28125 C 1.65625 -4.0625 1.472656 -3.726562 1.390625 -3.28125 L 4.421875 -3.28125 L 4.421875 -3.359375 C 4.390625 -3.722656 4.226562 -4.019531 3.9375 -4.25 C 3.644531 -4.488281 3.3125 -4.609375 2.9375 -4.609375 Z M 2.9375 -4.609375 "/></g></g></g><g fill="#000000" fill-opacity="1"><g transform="translate(134.86478, 77.240454)"><g><path d="M 3.078125 -5.515625 C 3.617188 -5.515625 4.066406 -5.425781 4.421875 -5.25 C 4.785156 -5.082031 4.96875 -4.863281 4.96875 -4.59375 C 4.96875 -4.476562 4.925781 -4.375 4.84375 -4.28125 C 4.769531 -4.1875 4.675781 -4.140625 4.5625 -4.140625 C 4.476562 -4.140625 4.410156 -4.148438 4.359375 -4.171875 C 4.304688 -4.203125 4.234375 -4.25 4.140625 -4.3125 C 4.097656 -4.351562 4.035156 -4.40625 3.953125 -4.46875 C 3.867188 -4.507812 3.75 -4.539062 3.59375 -4.5625 C 3.445312 -4.59375 3.3125 -4.609375 3.1875 -4.609375 C 2.832031 -4.609375 2.515625 -4.523438 2.234375 -4.359375 C 1.960938 -4.191406 1.75 -3.960938 1.59375 -3.671875 C 1.445312 -3.378906 1.375 -3.054688 1.375 -2.703125 C 1.375 -2.335938 1.445312 -2.007812 1.59375 -1.71875 C 1.738281 -1.4375 1.945312 -1.210938 2.21875 -1.046875 C 2.488281 -0.878906 2.796875 -0.796875 3.140625 -0.796875 C 3.492188 -0.796875 3.78125 -0.851562 4 -0.96875 C 4.050781 -0.988281 4.113281 -1.03125 4.1875 -1.09375 C 4.257812 -1.15625 4.320312 -1.195312 4.375 -1.21875 C 4.425781 -1.25 4.488281 -1.265625 4.5625 -1.265625 C 4.695312 -1.265625 4.800781 -1.21875 4.875 -1.125 C 4.957031 -1.039062 5 -0.929688 5 -0.796875 C 5 -0.660156 4.910156 -0.519531 4.734375 -0.375 C 4.554688 -0.238281 4.3125 -0.125 4 -0.03125 C 3.695312 0.0625 3.367188 0.109375 3.015625 0.109375 C 2.492188 0.109375 2.035156 -0.0078125 1.640625 -0.25 C 1.242188 -0.5 0.9375 -0.835938 0.71875 -1.265625 C 0.507812 -1.691406 0.40625 -2.171875 0.40625 -2.703125 C 0.40625 -3.234375 0.515625 -3.710938 0.734375 -4.140625 C 0.960938 -4.566406 1.28125 -4.898438 1.6875 -5.140625 C 2.09375 -5.390625 2.554688 -5.515625 3.078125 -5.515625 Z M 3.078125 -5.515625 "/></g></g></g><g fill="#000000" fill-opacity="1"><g transform="translate(146.860644, 77.240454)"><g><path d="M 3.40625 -5.484375 C 4.613281 -5.484375 5.21875 -4.734375 5.21875 -3.234375 L 5.21875 -0.5 C 5.21875 -0.351562 5.171875 -0.234375 5.078125 -0.140625 C 4.992188 -0.046875 4.878906 0 4.734375 0 C 4.597656 0 4.484375 -0.046875 4.390625 -0.140625 C 4.296875 -0.234375 4.25 -0.351562 4.25 -0.5 L 4.25 -3.234375 C 4.25 -4.128906 3.867188 -4.578125 3.109375 -4.578125 C 2.710938 -4.578125 2.378906 -4.445312 2.109375 -4.1875 C 1.835938 -3.925781 1.703125 -3.609375 1.703125 -3.234375 L 1.703125 -0.5 C 1.703125 -0.351562 1.65625 -0.234375 1.5625 -0.140625 C 1.46875 -0.046875 1.351562 0 1.21875 0 C 1.070312 0 0.953125 -0.046875 0.859375 -0.140625 C 0.773438 -0.234375 0.734375 -0.351562 0.734375 -0.5 L 0.734375 -7.109375 C 0.734375 -7.242188 0.773438 -7.359375 0.859375 -7.453125 C 0.953125 -7.554688 1.070312 -7.609375 1.21875 -7.609375 C 1.351562 -7.609375 1.46875 -7.554688 1.5625 -7.453125 C 1.65625 -7.359375 1.703125 -7.242188 1.703125 -7.109375 L 1.703125 -4.515625 C 1.878906 -4.785156 2.117188 -5.015625 2.421875 -5.203125 C 2.734375 -5.390625 3.0625 -5.484375 3.40625 -5.484375 Z M 3.40625 -5.484375 "/></g></g></g><g fill="#000000" fill-opacity="1"><g transform="translate(159.524998, 77.240454)"><g><path d="M 3.46875 -5.515625 C 4.707031 -5.515625 5.328125 -4.773438 5.328125 -3.296875 L 5.328125 -0.5 C 5.328125 -0.351562 5.28125 -0.234375 5.1875 -0.140625 C 5.09375 -0.046875 4.972656 0 4.828125 0 C 4.691406 0 4.578125 -0.046875 4.484375 -0.140625 C 4.390625 -0.234375 4.34375 -0.351562 4.34375 -0.5 L 4.34375 -3.28125 C 4.34375 -3.6875 4.25 -4.007812 4.0625 -4.25 C 3.882812 -4.488281 3.585938 -4.609375 3.171875 -4.609375 C 2.890625 -4.609375 2.640625 -4.546875 2.421875 -4.421875 C 2.203125 -4.304688 2.023438 -4.144531 1.890625 -3.9375 C 1.765625 -3.738281 1.703125 -3.519531 1.703125 -3.28125 L 1.703125 -0.5 C 1.703125 -0.351562 1.65625 -0.234375 1.5625 -0.140625 C 1.46875 -0.046875 1.351562 0 1.21875 0 C 1.070312 0 0.953125 -0.046875 0.859375 -0.140625 C 0.773438 -0.234375 0.734375 -0.351562 0.734375 -0.5 L 0.734375 -4.890625 C 0.734375 -5.023438 0.773438 -5.140625 0.859375 -5.234375 C 0.953125 -5.335938 1.070312 -5.390625 1.21875 -5.390625 C 1.351562 -5.390625 1.46875 -5.335938 1.5625 -5.234375 C 1.65625 -5.140625 1.703125 -5.023438 1.703125 -4.890625 L 1.703125 -4.53125 C 1.878906 -4.8125 2.128906 -5.046875 2.453125 -5.234375 C 2.773438 -5.421875 3.113281 -5.515625 3.46875 -5.515625 Z M 3.46875 -5.515625 "/></g></g></g><g fill="#000000" fill-opacity="1"><g transform="translate(172.2922, 77.240454)"><g><path d="M 5.453125 -2.90625 C 5.453125 -2.78125 5.398438 -2.671875 5.296875 -2.578125 C 5.203125 -2.492188 5.09375 -2.453125 4.96875 -2.453125 L 1.34375 -2.453125 C 1.394531 -1.953125 1.585938 -1.550781 1.921875 -1.25 C 2.253906 -0.945312 2.660156 -0.796875 3.140625 -0.796875 C 3.460938 -0.796875 3.726562 -0.84375 3.9375 -0.9375 C 4.144531 -1.039062 4.328125 -1.164062 4.484375 -1.3125 C 4.585938 -1.375 4.6875 -1.40625 4.78125 -1.40625 C 4.894531 -1.40625 4.988281 -1.363281 5.0625 -1.28125 C 5.144531 -1.195312 5.1875 -1.101562 5.1875 -1 C 5.1875 -0.851562 5.117188 -0.722656 4.984375 -0.609375 C 4.785156 -0.410156 4.519531 -0.238281 4.1875 -0.09375 C 3.863281 0.0390625 3.53125 0.109375 3.1875 0.109375 C 2.632812 0.109375 2.144531 -0.00390625 1.71875 -0.234375 C 1.300781 -0.472656 0.976562 -0.800781 0.75 -1.21875 C 0.519531 -1.632812 0.40625 -2.109375 0.40625 -2.640625 C 0.40625 -3.210938 0.519531 -3.71875 0.75 -4.15625 C 0.988281 -4.59375 1.300781 -4.925781 1.6875 -5.15625 C 2.070312 -5.394531 2.488281 -5.515625 2.9375 -5.515625 C 3.375 -5.515625 3.785156 -5.398438 4.171875 -5.171875 C 4.554688 -4.941406 4.863281 -4.628906 5.09375 -4.234375 C 5.332031 -3.835938 5.453125 -3.394531 5.453125 -2.90625 Z M 2.9375 -4.609375 C 2.550781 -4.609375 2.21875 -4.5 1.9375 -4.28125 C 1.65625 -4.0625 1.472656 -3.726562 1.390625 -3.28125 L 4.421875 -3.28125 L 4.421875 -3.359375 C 4.390625 -3.722656 4.226562 -4.019531 3.9375 -4.25 C 3.644531 -4.488281 3.3125 -4.609375 2.9375 -4.609375 Z M 2.9375 -4.609375 "/></g></g></g><g fill="#000000" fill-opacity="1"><g transform="translate(184.863992, 77.240454)"><g><path d="M 7.015625 -5.4375 C 7.148438 -5.4375 7.265625 -5.390625 7.359375 -5.296875 C 7.453125 -5.203125 7.5 -5.085938 7.5 -4.953125 C 7.5 -4.898438 7.484375 -4.832031 7.453125 -4.75 L 5.875 -0.3125 C 5.832031 -0.195312 5.765625 -0.113281 5.671875 -0.0625 C 5.578125 -0.0078125 5.472656 0.0078125 5.359375 0 C 5.179688 -0.0078125 5.046875 -0.113281 4.953125 -0.3125 L 3.875 -3.109375 L 2.890625 -0.3125 C 2.847656 -0.21875 2.785156 -0.144531 2.703125 -0.09375 C 2.628906 -0.0390625 2.550781 -0.0078125 2.46875 0 C 2.363281 0.0078125 2.257812 -0.0078125 2.15625 -0.0625 C 2.0625 -0.125 2 -0.207031 1.96875 -0.3125 L 0.375 -4.75 C 0.351562 -4.8125 0.34375 -4.878906 0.34375 -4.953125 C 0.34375 -5.085938 0.382812 -5.203125 0.46875 -5.296875 C 0.5625 -5.390625 0.679688 -5.4375 0.828125 -5.4375 C 1.054688 -5.4375 1.207031 -5.332031 1.28125 -5.125 L 2.5 -1.671875 L 3.46875 -4.21875 C 3.550781 -4.425781 3.703125 -4.53125 3.921875 -4.53125 C 4.128906 -4.53125 4.269531 -4.425781 4.34375 -4.21875 L 5.34375 -1.703125 L 6.546875 -5.125 C 6.617188 -5.332031 6.773438 -5.4375 7.015625 -5.4375 Z M 7.015625 -5.4375 "/></g></g></g><g fill="#000000" fill-opacity="1"><g transform="translate(199.400127, 77.240454)"><g><path d="M 0.421875 -0.84375 C 0.359375 -0.9375 0.328125 -1.03125 0.328125 -1.125 C 0.328125 -1.257812 0.398438 -1.375 0.546875 -1.46875 C 0.609375 -1.519531 0.6875 -1.546875 0.78125 -1.546875 C 0.90625 -1.546875 1.019531 -1.492188 1.125 -1.390625 C 1.320312 -1.148438 1.539062 -0.972656 1.78125 -0.859375 C 2.019531 -0.742188 2.300781 -0.6875 2.625 -0.6875 C 2.882812 -0.695312 3.113281 -0.753906 3.3125 -0.859375 C 3.519531 -0.972656 3.625 -1.160156 3.625 -1.421875 C 3.625 -1.648438 3.519531 -1.828125 3.3125 -1.953125 C 3.113281 -2.078125 2.816406 -2.191406 2.421875 -2.296875 C 2.035156 -2.398438 1.71875 -2.503906 1.46875 -2.609375 C 1.21875 -2.722656 1.003906 -2.890625 0.828125 -3.109375 C 0.648438 -3.328125 0.5625 -3.609375 0.5625 -3.953125 C 0.5625 -4.265625 0.648438 -4.535156 0.828125 -4.765625 C 1.003906 -5.003906 1.238281 -5.1875 1.53125 -5.3125 C 1.820312 -5.445312 2.140625 -5.515625 2.484375 -5.515625 C 2.804688 -5.515625 3.128906 -5.453125 3.453125 -5.328125 C 3.785156 -5.203125 4.050781 -5.015625 4.25 -4.765625 C 4.332031 -4.660156 4.375 -4.5625 4.375 -4.46875 C 4.375 -4.351562 4.320312 -4.242188 4.21875 -4.140625 C 4.144531 -4.078125 4.054688 -4.046875 3.953125 -4.046875 C 3.828125 -4.046875 3.726562 -4.085938 3.65625 -4.171875 C 3.507812 -4.335938 3.332031 -4.460938 3.125 -4.546875 C 2.914062 -4.640625 2.6875 -4.6875 2.4375 -4.6875 C 2.175781 -4.6875 1.953125 -4.632812 1.765625 -4.53125 C 1.585938 -4.425781 1.5 -4.242188 1.5 -3.984375 C 1.507812 -3.742188 1.613281 -3.566406 1.8125 -3.453125 C 2.019531 -3.335938 2.332031 -3.222656 2.75 -3.109375 C 3.113281 -3.015625 3.414062 -2.910156 3.65625 -2.796875 C 3.894531 -2.691406 4.09375 -2.53125 4.25 -2.3125 C 4.414062 -2.101562 4.5 -1.820312 4.5 -1.46875 C 4.5 -1.144531 4.40625 -0.863281 4.21875 -0.625 C 4.039062 -0.394531 3.800781 -0.210938 3.5 -0.078125 C 3.195312 0.046875 2.878906 0.109375 2.546875 0.109375 C 2.117188 0.109375 1.71875 0.0351562 1.34375 -0.109375 C 0.976562 -0.265625 0.671875 -0.507812 0.421875 -0.84375 Z M 0.421875 -0.84375 "/></g></g></g></svg>